<?xml version="1.0" encoding="UTF-8" standalone="no"?>
<!-- Created with Inkscape (http://www.inkscape.org/) -->

<svg
   xmlns:dc="http://purl.org/dc/elements/1.1/"
   xmlns:cc="http://creativecommons.org/ns#"
   xmlns:rdf="http://www.w3.org/1999/02/22-rdf-syntax-ns#"
   xmlns:svg="http://www.w3.org/2000/svg"
   xmlns="http://www.w3.org/2000/svg"
   xmlns:sodipodi="http://sodipodi.sourceforge.net/DTD/sodipodi-0.dtd"
   xmlns:inkscape="http://www.inkscape.org/namespaces/inkscape"
   width="2048"
   height="1024"
   id="svg3051"
   version="1.1"
   inkscape:version="0.92.1 r15371"
   sodipodi:docname="source.svg">
  <defs
     id="defs3053" />
  <sodipodi:namedview
     id="base"
     pagecolor="#ffffff"
     bordercolor="#666666"
     borderopacity="1.0"
     inkscape:pageopacity="0.0"
     inkscape:pageshadow="2"
     inkscape:zoom="0.49497474"
     inkscape:cx="1013.2624"
     inkscape:cy="485.04981"
     inkscape:document-units="px"
     inkscape:current-layer="layer1"
     showgrid="false"
     units="cm"
     showguides="true"
     inkscape:guide-bbox="true"
     fit-margin-top="0"
     fit-margin-left="0"
     fit-margin-right="0"
     fit-margin-bottom="0"
     inkscape:window-width="1366"
     inkscape:window-height="709"
     inkscape:window-x="1024"
     inkscape:window-y="0"
     inkscape:window-maximized="1"
     inkscape:measure-start="0,0"
     inkscape:measure-end="0,0">
    <sodipodi:guide
       position="1080.8632,1004.0916"
       orientation="0,1"
       id="guide84"
       inkscape:locked="false" />
  </sodipodi:namedview>
  <metadata
     id="metadata3056">
    <rdf:RDF>
      <cc:Work
         rdf:about="">
        <dc:format>image/svg+xml</dc:format>
        <dc:type
           rdf:resource="http://purl.org/dc/dcmitype/StillImage" />
        <dc:title></dc:title>
      </cc:Work>
    </rdf:RDF>
  </metadata>
  <g
     inkscape:label="Ebene 1"
     inkscape:groupmode="layer"
     id="layer1"
     transform="translate(-23.235388,16.590891)">
    <path
       inkscape:connector-curvature="0"
       d="m 27.429923,919.56321 54.084119,-85.63314 c 0,0 49.577118,0 49.577118,0 0,0 -49.577118,85.63314 -49.577118,85.63314 0,0 49.577118,83.83039 49.577118,83.83039 H 77.00704 Z m 63.098152,0 49.577105,-85.63314 c 0,0 54.08411,0 54.08411,0 0,0 -49.5771,85.63314 -49.5771,85.63314 l 49.5771,83.83039 h -54.08411 z m 63.098125,0 49.57707,-85.63314 c 0,0 54.08419,0 54.08419,0 0,0 -48.67574,85.63314 -48.67574,85.63314 l 48.67574,83.83039 h -54.08419 z m 175.7734,-85.63314 c 0,0 49.57711,0 49.57711,0 l -63.09813,169.46353 h -49.57714 z m 108.16829,85.63314 c 0,0 -49.57717,-85.63314 -49.57717,-85.63314 0,0 54.08417,0 54.08417,0 0,0 49.57707,85.63314 49.57707,85.63314 l -49.57707,83.83039 h -54.08417 c 0,0 49.57717,-83.83039 49.57717,-83.83039 z m 13.52102,83.83039 c 0,0 49.57711,-83.83039 49.57711,-83.83039 0,0 -49.57711,-85.63314 -49.57711,-85.63314 h 54.08411 l 49.57711,85.63314 -49.57711,83.83039 c 0,0 -54.08411,0 -54.08411,0 z"
       id="path1103"
       style="fill:#000000;stroke:#ffffff;stroke-width:3.94024181;stroke-miterlimit:4;stroke-dasharray:none;stroke-opacity:1" />
    <path
       inkscape:connector-curvature="0"
       d="m 978.04908,498.50386 c -9.63535,-4.68164 -15.1307,-14.07246 -13.6885,-23.39172 1.59267,-10.29221 7.03789,-16.8699 17.91507,-21.64117 5.1854,-2.27464 7.736,-2.7813 14.00165,-2.78197 4.2136,-3.9e-4 7.661,-0.34828 7.661,-0.77302 0,-0.42475 -1.6645,-1.3227 -3.6984,-1.99544 -2.0342,-0.67272 -3.6702,-1.73862 -3.6355,-2.36867 0.034,-0.62998 6.348,-9.62596 14.0295,-19.99105 l 13.9669,-18.84562 24.5401,-0.25943 c 13.497,-0.14264 24.5401,-0.0656 24.5401,0.17167 0,0.23709 -3.4474,5.21552 -7.661,11.06319 -14.2251,19.74146 -25.6234,36.20239 -25.9662,37.49965 -0.2106,0.79729 0.2572,1.07993 1.2254,0.74006 3.0655,-1.07585 7.8272,2.26058 9.7301,6.81798 3.3078,7.92112 0.1372,17.62803 -7.6181,23.32364 -6.8677,5.04384 -12.9874,7.39145 -20.5638,7.88893 -9.0233,0.59238 -11.4922,-1.20408 -11.4922,-8.36239 0,-2.9481 -0.5764,-5.15142 -1.5387,-5.88189 -2.2221,-1.68654 -3.7448,-0.38962 -3.7448,3.18946 0,5.23925 -4.4879,9.88258 -13.27505,13.73486 -7.3985,3.24355 -10.95951,3.69388 -14.72757,1.86293 z m 187.03722,-1.3202 c -2.3248,-0.98128 -5.3692,-2.91847 -6.7655,-4.30497 l -2.5384,-2.52105 2.8026,-3.69874 c 2.6518,-3.49966 3.5618,-6.01097 2.1782,-6.01097 -0.3436,0 -2.5877,1.53682 -4.9871,3.41522 -9.9919,7.82202 -23.7951,11.42734 -33.6693,8.79431 -8.5684,-2.28468 -14.9888,-6.45069 -17.6289,-11.43853 -4.5172,-8.53386 -2.133,-16.29741 8.0059,-26.0704 5.9039,-5.69088 6.0017,-5.86942 2.9373,-5.36392 -1.7436,0.28762 -4.1214,0.77177 -5.2837,1.07592 -1.8189,0.47595 -4.1018,-2.49144 -16.379,-21.28872 -7.8459,-12.01302 -14.424,-22.22388 -14.6178,-22.69079 -0.1966,-0.47423 11.7752,-0.84904 27.1192,-0.84904 h 27.4717 l 9.9157,12.32213 c 5.4537,6.77715 12.1757,15.25765 14.9383,18.84558 2.7622,3.58789 5.5928,6.52381 6.29,6.52428 3.2726,0 15.1167,6.24252 20.2117,10.64926 7.7664,6.7178 10.5272,12.65582 10.5506,22.69212 0.022,8.44189 -0.9826,10.95247 -5.95,14.90379 -8.5249,6.78152 -16.5436,8.41589 -24.6015,5.01452 z m -294.58638,-4.38103 c -14.66424,-5.5151 -27.03911,-18.26274 -31.03182,-31.96675 -1.99084,-6.83261 -1.79809,-9.15211 1.29087,-15.5401 3.8203,-7.90034 7.86342,-12.19121 16.34872,-17.35037 6.8801,-4.18317 8.68128,-6.3475 6.36949,-7.6542 -0.53652,-0.30329 -2.749,0.40562 -4.91666,1.57527 l -3.94116,2.12666 -3.42346,-3.72953 c -4.12418,-4.49271 -5.76386,-9.09116 -5.76386,-16.16466 0,-14.89203 9.49753,-25.28839 28.50256,-31.2003 10.97289,-3.41326 16.4224,-3.87105 24.24975,-2.03704 10.49866,2.45984 16.40029,6.9298 20.93574,15.85677 2.2546,4.43771 2.5567,6.21997 2.23663,13.19779 l -0.37017,8.06714 13.73735,-0.38189 c 45.62109,-1.26837 61.9445,-1.23552 61.6158,0.12404 -0.36725,1.51941 -29.79892,42.01611 -33.08461,45.52296 -2.08455,2.22473 -2.4175,2.25677 -24.28279,2.33917 l -22.16946,0.0835 -4.64493,-4.4964 c -5.49402,-5.31803 -8.11366,-4.68851 -3.93319,0.94522 3.35937,4.52777 4.82309,9.23536 4.83075,15.53788 0,3.89347 -0.76184,6.05828 -3.76356,10.63079 -4.86349,7.40838 -8.21195,10.60272 -14.72291,14.04476 -6.89351,3.6442 -15.19667,3.80616 -24.06908,0.46934 z m 394.67458,-8.36578 c -10.1363,-1.60312 -19.4753,-7.41416 -23.8034,-14.81153 -1.9308,-3.30025 -2.3346,-5.64191 -2.4314,-14.10484 -0.063,-5.58123 -0.5393,-10.32552 -1.0567,-10.54301 -0.8998,-0.37816 -3.9315,4.32542 -5.0827,7.88525 -0.4902,1.51635 -2.2384,1.69128 -16.9004,1.69128 h -16.3533 l -18.6091,-24.4026 -18.6091,-24.40264 25.6833,-0.59191 c 14.1255,-0.32551 30.7858,-0.65175 37.0226,-0.72485 10.8658,-0.12732 11.3585,-0.22378 11.7975,-2.30736 2.4045,-11.41193 3.4027,-14.51847 6.2522,-19.45377 4.2448,-7.35234 11.3854,-13.82202 18.6885,-16.9327 5.065,-2.15734 7.2444,-2.47887 16.9099,-2.49464 10.2667,-0.017 11.618,0.20838 18.0943,3.01478 9.0137,3.90591 14.9514,8.86763 18.4594,15.42487 2.5513,4.76919 2.757,5.99371 2.2989,13.68527 -0.6194,10.3984 -3.2411,16.98264 -10.9647,27.53594 -3.1335,4.2815 -5.6971,8.15283 -5.6971,8.60299 0,1.56202 1.734,0.80325 4.7552,-2.08085 1.6704,-1.59459 3.6061,-2.89926 4.3015,-2.89926 1.8481,0 8.872,7.41802 10.5951,11.18976 0.8715,1.9076 1.4824,6.57921 1.4824,11.33619 0,7.07266 -0.4028,8.82837 -3.1985,13.9451 -3.6617,6.70186 -10.1727,12.62359 -17.5764,15.98546 -10.5283,4.78081 -25.7514,7.08302 -36.058,5.45307 z m -214.088,-85.87815 c -3.0304,-1.41309 -4.6634,-1.65109 -6.6323,-0.96645 -5.7843,2.0113 -24.4453,0.38091 -30.3745,-2.65381 -1.56,-0.79838 -3.2557,-0.50675 -7.5797,1.30377 -3.9154,1.63937 -6.4573,2.13742 -8.557,1.67643 -4.08945,-0.89804 -8.87215,-3.1301 -11.61365,-5.42025 -2.2809,-1.90524 -2.2948,-1.90464 -5.43847,0.22097 -2.86172,1.93492 -3.52674,2.02023 -7.22376,0.92647 -6.02026,-1.78109 -12.56369,-5.49358 -16.00984,-9.08322 -2.3619,-2.46037 -3.33624,-4.82886 -4.34978,-10.57513 -1.17048,-6.63647 -1.62199,-7.55409 -4.35169,-8.84514 -21.70307,-10.26435 -63.37032,-46.37938 -80.56976,-69.83371 -12.75918,-17.39927 -23.73281,-39.77021 -33.52842,-68.35134 -1.82166,-5.31543 -3.78878,-10.9691 -4.37144,-12.56374 -3.17089,-8.68029 -7.39717,-37.10648 -8.76454,-58.95286 -0.79854,-12.75701 -1.2306,-23.40155 -0.96019,-23.65454 0.27025,-0.25298 14.29113,-0.62875 31.15724,-0.83503 l 30.66565,-0.37504 -0.7169,10.98263 c -0.79059,12.1099 0.48127,25.60383 3.8592,40.94232 2.23722,10.15921 12.83214,40.71335 15.10207,43.55269 1.12096,1.40181 1.61211,-0.0421 3.16765,-9.3084 2.32637,-13.85853 5.70136,-23.63229 12.81812,-37.12004 11.67476,-22.12566 27.9227,-38.38162 51.72405,-51.74929 29.44126,-16.53529 70.65656,-23.22669 101.44386,-16.4697 28.24,6.19788 50.3846,18.41822 76.1467,42.02111 20.1204,18.43402 32.0629,36.08954 40.2751,59.54201 2.2238,6.35016 4.5005,11.41216 5.0596,11.24889 0.5589,-0.16329 1.5643,-2.87555 2.2346,-6.02725 0.6696,-3.1517 1.9898,-8.30257 2.9334,-11.44636 5.5418,-18.46334 6.8793,-49.62727 2.8814,-67.12726 -1.2597,-5.51354 -2.0367,-10.25649 -1.7269,-10.53988 0.31,-0.2834 27.6731,-0.72565 60.8071,-0.98277 l 60.2439,-0.46753 v 9.07453 c -0.015,44.93392 -16.7419,100.20593 -42.2033,139.36731 -19.9194,30.63744 -40.701,54.0356 -63.3563,71.33364 -16.6882,12.74197 -27.0552,18.29703 -57.3744,30.74403 -11.3196,4.64695 -12.4156,5.32682 -13.0858,8.11821 -1.3435,5.59432 -3.863,9.22461 -7.1232,10.26408 -5.1516,1.64246 -14.0974,1.21364 -18.6106,-0.8921 l -4.066,-1.89712 -2.873,2.25788 c -4.8467,3.80885 -16.0835,4.18025 -23.4651,0.77566 -3.1008,-1.43024 -3.539,-1.4312 -5.2835,-0.0113 -4.9153,3.9981 -23.2564,5.08588 -30.3086,1.79762 z m 24.3432,-8.15649 c 2.5739,-2.02486 2.9732,-3.11219 3.3433,-9.10341 0.575,-9.30551 -2.7893,-18.85627 -7.584,-21.53021 -4.1369,-2.30707 -9.5915,-2.36979 -14.4153,-0.16584 l -3.6987,1.68979 -0.5282,14.70121 -0.5283,14.7012 3.6984,0.90359 c 2.0344,0.49693 6.6441,0.9485 10.2439,1.00344 5.4639,0.0834 7.0286,-0.28017 9.4689,-2.19977 z m 26.505,0.31038 c 2.3578,-0.7517 3.3797,-1.80842 3.8561,-3.98656 0.9102,-4.16147 0.7789,-18.43381 -0.182,-19.81605 -2.0931,-3.01037 -14.7096,-4.4233 -16.9964,-1.90339 -0.659,0.72634 -1.295,5.79248 -1.4436,11.50249 -0.2288,8.78354 0.015,10.47928 1.6872,12.17818 2.8338,2.8639 7.9592,3.65756 13.0787,2.02533 z m -97.2556,-1.39631 c 4.846,-3.10434 6.9106,-17.73372 3.0541,-21.63996 -3.0852,-3.12491 -9.2746,-4.32254 -13.66605,-2.64437 -4.4813,1.71245 -4.7986,2.18796 -6.0133,9.01382 -1.4924,8.38722 0.084,12.5333 5.6436,14.84174 5.38115,2.23437 8.00325,2.33675 10.98165,0.42877 z m 38.2378,-3.26756 c 1.1479,-3.31839 1.2624,-6.66716 0.5286,-15.44592 -0.9213,-11.01678 -0.9867,-11.22456 -3.8148,-12.12821 -2.2771,-0.72759 -4.0201,-0.43001 -8.3531,1.42621 -8.8247,3.78014 -11.0184,6.2327 -12.5081,13.98405 -0.7122,3.70506 -1.1308,8.45768 -0.9305,10.56147 0.3463,3.63108 0.6058,3.88442 5.1202,4.99876 2.6153,0.64558 7.846,1.09884 11.6237,1.00721 l 6.8685,-0.16656 z m 89.695,2.94624 c 4.632,-2.68895 4.2697,-21.93079 -0.4633,-24.60604 -0.5081,-0.28715 -3.9987,0.42083 -7.7571,1.57329 -7.9389,2.43435 -9.5146,4.41021 -9.378,11.75978 0.1253,6.77854 1.1529,9.46264 4.1514,10.8505 2.9126,1.34794 11.3935,1.6144 13.447,0.42247 z m -153.93615,-5.71592 c 1.72106,-4.72824 1.86044,-15.2656 0.22186,-16.76444 -0.69546,-0.63621 -4.80769,-1.36472 -9.13817,-1.61891 -7.2939,-0.42811 -7.96542,-0.3056 -9.11797,1.66382 -1.25964,2.15289 -0.81785,7.41659 1.09994,13.10312 1.01177,3.0003 3.70109,5.03959 8.34884,6.3311 5.6964,1.5828 7.19367,1.10934 8.5855,-2.71469 z M 1049.83,333.50736 c 0.3017,-1.72752 0.4422,-4.88055 0.3119,-7.00671 -0.226,-3.69048 -0.095,-3.86576 2.9,-3.86576 2.8531,0 3.2181,0.37635 4.0371,4.16515 1.6966,7.84575 3.3628,4.72047 10.9802,-20.59465 l 2.6172,-8.69796 -1.7334,-14.49661 c -0.9534,-7.97312 -3.0961,-21.88986 -4.7615,-30.92608 -1.6655,-9.03622 -3.4192,-19.00657 -3.8971,-22.15629 -0.9424,-6.21042 -2.8594,-8.04881 -3.896,-3.7364 -0.3568,1.48396 -1.1305,11.59999 -1.719,22.48008 -1.1585,21.41211 -1.4808,23.38919 -3.688,22.61462 -2.6706,-0.93728 -3.8578,-6.50423 -4.6593,-21.84804 -0.437,-8.36539 -1.143,-15.52861 -1.5692,-15.91829 -1.4715,-1.34583 -2.7408,2.15348 -2.7569,7.60027 -0.015,3.00602 -1.6672,13.4436 -3.6852,23.19456 -4.7113,22.76579 -5.3713,29.57203 -3.7387,38.55251 2.3624,12.99553 10.8013,33.78053 13.7154,33.78053 0.5464,0 1.2404,-1.41344 1.5425,-3.14093 z M 925.74172,329.3108 c 0,-0.78361 -1.17682,-3.54884 -2.6152,-6.14495 -1.43838,-2.59611 -2.92584,-6.49574 -3.30515,-8.66584 -0.37945,-2.17009 -1.04846,-3.94563 -1.48656,-3.94563 -1.65619,0 -2.23325,-16.40277 -0.97995,-27.85024 1.21381,-11.08362 1.15236,-12.25596 -1.10888,-21.17629 -2.28174,-9.00163 -6.47486,-18.32145 -8.90453,-19.79213 -2.54447,-1.54013 -2.63083,1.14002 -0.19894,6.16941 4.04723,8.36979 4.89368,15.13821 4.8203,38.54697 -0.0649,20.74107 0.056,22.1183 2.49406,28.2602 4.3959,11.0761 11.28485,19.98794 11.28485,14.5985 z m 247.43508,-0.30543 c 8.5466,-6.14852 11.7628,-22.30646 9.4397,-47.42395 -0.7118,-7.69624 -1.8019,-14.55268 -2.4225,-15.23657 -1.9988,-2.2026 -0.4283,-18.60303 2.3735,-24.78517 1.8758,-4.13954 2.1721,-5.71244 1.2369,-6.56784 -1.7123,-1.56593 -6.3343,7.8616 -7.7241,15.75482 -1.1569,6.57017 -0.8636,10.22956 2.3923,29.84806 3.766,22.69345 1.3917,36.46907 -7.6793,44.54959 -2.7883,2.484 -4.7774,4.78388 -4.4197,5.11084 1.2428,1.13671 4.255,0.58337 6.8032,-1.24978 z m -156.6331,-42.37188 c 1.9928,-0.92939 4.5491,-2.84531 5.6807,-4.25764 4.3296,-5.40407 10.9949,-42.05377 9.9905,-54.93536 -0.5324,-6.82993 -3.4305,-13.04479 -9.9582,-21.35457 -5.1329,-6.5346 -6.1814,-6.91495 -15.9344,-5.78102 -8.5697,0.99634 -9.976,1.39103 -35.67032,10.0111 -27.24281,9.13952 -29.474,10.52495 -32.24835,20.02383 -1.58279,5.41959 -0.42719,26.3677 1.6581,30.05579 3.7487,6.62973 13.8162,11.84197 29.28136,15.15961 5.48245,1.1761 12.16236,3.47203 16.37906,5.62954 14.25475,7.29374 23.39885,8.91026 30.82155,5.44872 z m 93.5937,-5.59894 c 2.3248,-0.8823 8.7442,-3.90324 14.2656,-6.71317 5.5214,-2.80995 13.3673,-6.02657 17.4358,-7.14805 8.2609,-2.27722 16.4602,-7.29311 19.5724,-11.97358 1.1323,-1.70297 2.8406,-6.30949 3.7957,-10.2367 3.4162,-14.04307 -0.2876,-25.57237 -11.2423,-34.99522 -9.6134,-8.26915 -14.9347,-10.51264 -27.7123,-11.68344 -15.5605,-1.42577 -24.584,-0.4253 -33.6734,3.73347 -9.0105,4.12266 -13.1569,7.8082 -17.2649,15.34517 -2.727,5.00361 -3.1205,6.76799 -3.11,13.94323 0.015,7.7451 0.3914,9.11944 6.6501,24.03918 12.3867,29.52842 11.6966,28.60135 20.7162,27.83321 3.4872,-0.29695 8.2424,-1.26182 10.5671,-2.1441 z"
       style="fill:#000000;stroke:#ffffff;stroke-width:3.20390797;stroke-miterlimit:4;stroke-dasharray:none;stroke-opacity:1"
       id="path1456"
       sodipodi:nodetypes="csccssccccsccccscsssccccccsccccccccscscccccccsccccccscccscccscccccsccsccccscccccccccccscscscsccscccccccccscsscsssccsccssssscccscsccsscccccccccccscccccccccsccccccccccccsccsccccccccscccccccccscscscssscscsccscsssscssscsssscscscsssccccsccsccssccscccsssscscc" />
    <path
       inkscape:connector-curvature="0"
       d="m 505.17303,835.73282 54.0841,-85.63314 c 0,0 49.5771,0 49.5771,0 0,0 -49.5771,85.63314 -49.5771,85.63314 0,0 49.5771,83.83039 49.5771,83.83039 h -54.0841 z m 63.0981,0 49.5771,-85.63314 c 0,0 54.0842,0 54.0842,0 0,0 -49.5771,85.63314 -49.5771,85.63314 l 49.5771,83.83039 h -54.0842 z m 63.0982,0 49.577,-85.63314 c 0,0 54.0842,0 54.0842,0 0,0 -48.6757,85.63314 -48.6757,85.63314 l 48.6757,83.83039 h -54.0842 z m 175.7734,-85.63314 c 0,0 49.5771,0 49.5771,0 l -63.0982,169.46353 h -49.5771 z m 108.1683,85.63314 c 0,0 -49.5772,-85.63314 -49.5772,-85.63314 0,0 54.0842,0 54.0842,0 0,0 49.577,85.63314 49.577,85.63314 l -49.577,83.83039 h -54.0842 c 0,0 49.5772,-83.83039 49.5772,-83.83039 z m 13.521,83.83039 c 0,0 49.5771,-83.83039 49.5771,-83.83039 0,0 -49.5771,-85.63314 -49.5771,-85.63314 h 54.0841 l 49.57707,85.63314 -49.57707,83.83039 c 0,0 -54.0841,0 -54.0841,0 z"
       id="path1103-3"
       style="fill:#000000;stroke:#ffffff;stroke-width:3.94024181;stroke-miterlimit:4;stroke-dasharray:none;stroke-opacity:1" />
    <path
       inkscape:connector-curvature="0"
       d="m 1542.1532,917.68348 54.0841,-85.63314 c 0,0 49.5771,0 49.5771,0 0,0 -49.5771,85.63314 -49.5771,85.63314 0,0 49.5771,83.83042 49.5771,83.83042 h -54.0841 z m 63.0981,0 49.5771,-85.63314 c 0,0 54.0841,0 54.0841,0 0,0 -49.5771,85.63314 -49.5771,85.63314 l 49.5771,83.83042 h -54.0841 z m 63.0981,0 49.5771,-85.63314 c 0,0 54.0842,0 54.0842,0 0,0 -48.6757,85.63314 -48.6757,85.63314 l 48.6757,83.83042 h -54.0842 z m 175.7734,-85.63314 c 0,0 49.5772,0 49.5772,0 l -63.0982,169.46356 h -49.5771 z m 108.1683,85.63314 c 0,0 -49.5771,-85.63314 -49.5771,-85.63314 0,0 54.0841,0 54.0841,0 0,0 49.5771,85.63314 49.5771,85.63314 l -49.5771,83.83042 h -54.0841 c 0,0 49.5771,-83.83042 49.5771,-83.83042 z m 13.5211,83.83042 c 0,0 49.5771,-83.83042 49.5771,-83.83042 0,0 -49.5771,-85.63314 -49.5771,-85.63314 h 54.0841 l 49.5771,85.63314 -49.5771,83.83042 c 0,0 -54.0841,0 -54.0841,0 z"
       id="path1103-6"
       style="fill:#000000;stroke:#ffffff;stroke-width:3.94024181;stroke-miterlimit:4;stroke-dasharray:none;stroke-opacity:1" />
    <path
       inkscape:connector-curvature="0"
       d="m 1064.4101,833.85306 54.0841,-85.63314 c 0,0 49.5771,0 49.5771,0 0,0 -49.5771,85.63314 -49.5771,85.63314 0,0 49.5771,83.83042 49.5771,83.83042 h -54.0841 z m 63.0981,0 49.5771,-85.63314 c 0,0 54.0841,0 54.0841,0 0,0 -49.5771,85.63314 -49.5771,85.63314 l 49.5771,83.83042 h -54.0841 z m 63.0981,0 49.5771,-85.63314 c 0,0 54.0842,0 54.0842,0 0,0 -48.6757,85.63314 -48.6757,85.63314 l 48.6757,83.83042 h -54.0842 z m 175.7734,-85.63314 c 0,0 49.5772,0 49.5772,0 l -63.0982,169.46356 h -49.5771 z m 108.1683,85.63314 c 0,0 -49.5771,-85.63314 -49.5771,-85.63314 0,0 54.0841,0 54.0841,0 0,0 49.5771,85.63314 49.5771,85.63314 l -49.5771,83.83042 h -54.0841 c 0,0 49.5771,-83.83042 49.5771,-83.83042 z m 13.5211,83.83042 c 0,0 49.5771,-83.83042 49.5771,-83.83042 0,0 -49.5771,-85.63314 -49.5771,-85.63314 h 54.0841 l 49.5771,85.63314 -49.5771,83.83042 c 0,0 -54.0841,0 -54.0841,0 z"
       id="path1103-6-7"
       style="fill:#000000;stroke:#ffffff;stroke-width:3.94024181;stroke-miterlimit:4;stroke-dasharray:none;stroke-opacity:1" />
    <path
       inkscape:connector-curvature="0"
       d="m 813.51045,664.3895 54.0841,-85.63314 c 0,0 49.5771,0 49.5771,0 0,0 -49.5771,85.63314 -49.5771,85.63314 0,0 49.5771,83.83042 49.5771,83.83042 h -54.0841 z m 63.0981,0 49.5771,-85.63314 c 0,0 54.0841,0 54.0841,0 0,0 -49.5771,85.63314 -49.5771,85.63314 l 49.5771,83.83042 h -54.0841 z m 63.0981,0 49.5771,-85.63314 c 0,0 54.08425,0 54.08425,0 0,0 -48.67575,85.63314 -48.67575,85.63314 l 48.67575,83.83042 h -54.08425 z m 175.77345,-85.63314 c 0,0 49.5772,0 49.5772,0 l -63.0982,169.46356 h -49.5771 z m 108.1683,85.63314 c 0,0 -49.5771,-85.63314 -49.5771,-85.63314 0,0 54.0841,0 54.0841,0 0,0 49.5771,85.63314 49.5771,85.63314 l -49.5771,83.83042 h -54.0841 c 0,0 49.5771,-83.83042 49.5771,-83.83042 z m 13.5211,83.83042 c 0,0 49.5771,-83.83042 49.5771,-83.83042 0,0 -49.5771,-85.63314 -49.5771,-85.63314 h 54.0841 l 49.5771,85.63314 -49.5771,83.83042 c 0,0 -54.0841,0 -54.0841,0 z"
       id="path1103-6-5"
       style="fill:#000000;stroke:#ffffff;stroke-width:3.94024181;stroke-miterlimit:4;stroke-dasharray:none;stroke-opacity:1" />
    <path
       inkscape:connector-curvature="0"
       style="fill:#000000;stroke:#ffffff;stroke-width:1.11567795;stroke-miterlimit:4;stroke-dasharray:none;stroke-opacity:1"
       d="m 108.52917,478.22289 c 4.33888,-2.92662 6.61934,-7.65829 7.0429,-14.61293 0.31561,-5.18262 -0.2025,-9.08817 -2.43162,-18.33001 -1.99078,-8.25379 -2.25691,-9.90562 -2.38375,-14.79569 l -0.11027,-4.25123 0.61609,-1.132 c 0.33887,-0.6226 0.67515,-1.12551 0.74734,-1.11759 0.22361,0.0246 2.93787,3.24468 4.58696,5.44185 3.59603,4.79112 5.63687,9.51699 6.00851,13.91334 l 0.14378,1.70106 1.16036,0.24089 c 2.33757,0.48528 2.39347,0.46932 2.72305,-0.77759 0.44047,-1.66635 0.23248,-5.82852 -0.38275,-7.65861 -0.83437,-2.48201 -2.7071,-5.95856 -5.38396,-9.99477 -2.97158,-4.4807 -4.90891,-8.01924 -5.62225,-10.26916 -0.58389,-1.84151 -0.65408,-1.88417 -3.42423,-2.0808 l -1.92257,-0.13647 -0.68736,1.75058 c -1.63706,4.16918 -2.23962,7.10106 -2.43563,11.85107 -0.22396,5.42662 0.34846,10.27104 2.60993,22.08788 1.96005,10.24196 1.93601,10.00782 1.35341,13.19312 -1.00616,5.50111 -2.3897,8.68775 -4.98558,11.48309 -0.62557,0.67365 -0.64495,0.75717 -0.48881,2.1089 0.0894,0.7741 0.24768,1.63223 0.35165,1.90694 0.29744,0.78592 1.22109,0.62055 2.9148,-0.52187 z m 19.89991,-22.00737 0.97076,-0.0863 -0.11935,-0.88973 c -0.18307,-1.36514 -1.06022,-2.49996 -2.46267,-3.18611 -1.08781,-0.53222 -1.59338,-0.61672 -4.72856,-0.79037 -1.93077,-0.10695 -3.88512,-0.19825 -4.34296,-0.20289 l -0.83247,-0.008 v 2.10467 c 0,2.48771 -0.63691,2.14284 5.12001,2.7724 4.04822,0.4427 4.44264,0.46039 6.39524,0.28679 z m -20.03961,-2.84251 c 0.18362,-0.73151 -0.0518,-2.18596 -0.49138,-3.036 -0.52624,-1.01763 -2.01372,-2.53926 -3.85965,-3.94826 -1.90244,-1.45214 -3.55329,-3.1463 -4.10443,-4.2121 -1.1867,-2.29484 -1.99057,-9.88504 -1.46476,-13.83017 0.71631,-5.37387 3.49732,-11.35643 7.12355,-15.32407 0.61023,-0.6677 1.10953,-1.31256 1.10953,-1.43299 0,-0.12045 -1.06542,-1.20528 -2.36756,-2.41075 -1.66912,-1.54522 -2.39876,-2.09355 -2.47338,-1.8588 -0.2938,0.92411 -3.99842,7.8351 -4.8306,9.01148 -1.80054,2.54527 -4.19034,4.3594 -6.53733,4.96262 -0.54738,0.14068 -1.37186,0.40055 -1.832175,0.57747 -1.211742,0.46572 -2.875459,0.39725 -5.668685,-0.23329 -4.17884,-0.9433 -5.509104,-0.67524 -6.466823,1.30315 -0.794164,1.64054 -0.63498,1.93004 1.444839,2.6278 3.647084,1.22354 8.452668,1.27638 13.268964,0.14588 1.48371,-0.34827 2.02604,-0.39827 2.21987,-0.20468 0.29121,0.29081 0.30694,2.20409 0.044,5.34038 -0.14754,1.75941 -0.097,2.52563 0.30536,4.62348 1.22281,6.37688 3.61222,11.04385 7.53185,14.71107 1.54608,1.44654 2.10819,1.82812 3.12402,2.12075 0.68131,0.19625 1.81115,0.64406 2.51073,0.99512 l 1.27194,0.6383 z m 12.5725,-39.17053 c 0.33406,-0.10058 0.95841,-0.39983 1.38744,-0.66499 0.64011,-0.3956 0.78009,-0.61513 0.78009,-1.2233 V 411.573 l -1.49844,-0.1467 c -3.74321,-0.36645 -6.76567,-1.60254 -9.74265,-3.98444 -3.17588,-2.54102 -5.92665,-6.20359 -10.40283,-13.85112 -1.44057,-2.46126 -2.34932,-3.79536 -2.58865,-3.80033 -0.44867,-0.009 -1.46798,1.1582 -1.65232,1.8926 -0.29701,1.18348 1.40869,6.88286 3.03675,10.14668 3.14464,6.30423 8.4234,10.59445 14.96754,12.16461 1.82078,0.43687 4.61541,0.5387 5.71307,0.20818 z m 110.60903,-3.10694 35.96217,-0.11285 0.72294,-0.51565 c 0.90936,-0.64858 2.29791,-3.4691 2.91548,-5.92202 1.06588,-4.23372 1.68334,-8.86806 2.026,-15.20624 0.1287,-2.38082 0.44184,-7.52541 0.69585,-11.43241 0.50421,-7.75618 0.46795,-12.61062 -0.14847,-19.86799 -0.9302,-10.95186 -2.62111,-17.52047 -4.8934,-19.00934 -0.62505,-0.40954 -7.17836,-0.80827 -28.4477,-1.73091 -20.00754,-0.8679 -41.62348,-0.15434 -53.77453,1.77514 -2.74031,0.43513 -3.24387,0.82033 -4.55955,3.48771 -1.3299,2.69613 -2.09203,5.76065 -2.29034,9.20904 -0.2158,3.75193 -0.12752,4.63965 0.47737,4.80193 0.77342,0.20748 3.2481,0.15308 3.68549,-0.081 0.63229,-0.3384 1.08599,-1.77572 1.4544,-4.60768 0.78156,-6.00808 1.84332,-7.42061 6.38439,-8.49359 5.07225,-1.19849 12.786,-1.64596 28.1355,-1.63212 14.91719,0.0135 26.43874,0.47251 37.99921,1.51398 2.85679,0.25736 3.67324,0.41147 4.55966,0.86065 2.29694,1.16394 4.01274,3.88312 5.06405,8.02539 0.80556,3.17395 0.9684,5.25767 1.20704,15.44605 0.34317,14.64809 -0.21439,21.74124 -2.30532,29.32821 -1.26358,4.5849 -2.31363,6.14129 -5.04086,7.47156 -3.03257,1.47923 -1.84494,1.42653 -31.93829,1.41731 -26.08284,-0.008 -34.69572,-0.17135 -38.08069,-0.72227 -3.15004,-0.51269 -4.95549,-3.77962 -5.99203,-10.84257 -0.4835,-3.2947 -0.54147,-3.49376 -1.18383,-4.06775 -1.30286,-1.16409 -3.01035,-1.024 -3.73683,0.30659 -0.65279,1.19566 -0.51625,5.06166 0.3198,9.05558 1.07792,5.14935 2.06577,8.63516 2.64081,9.31854 1.12221,1.33369 4.43097,2.13046 9.40466,2.26469 1.52616,0.0412 18.95781,0.0241 38.73702,-0.038 z M 130.34412,407.4518 c 1.44638,-0.35744 2.31607,-0.82636 3.36175,-1.81257 l 0.85214,-0.80363 -0.51962,-0.42073 c -0.80433,-0.65135 -2.54193,-1.08761 -5.69215,-1.42918 -1.58722,-0.17208 -3.33537,-0.45887 -3.88479,-0.63728 -6.03804,-1.96075 -9.80314,-4.37395 -14.68367,-9.41138 -2.38841,-2.46517 -7.30453,-8.5626 -7.66854,-9.51123 -0.0738,-0.19232 -0.47332,-0.3027 -1.09562,-0.3027 -1.14518,0 -1.14328,-0.132 -0.0463,3.2116 2.47697,7.54971 7.58802,13.79804 14.89028,18.20353 1.64201,0.99063 1.95299,1.08573 6.96921,2.13126 5.64443,1.17646 5.84001,1.19681 7.51726,0.78231 z m 107.25284,-4.67861 c -0.2139,-0.55741 -8.35923,-11.86442 -10.17127,-14.1193 -3.7306,-4.64233 -9.18098,-10.35769 -11.24238,-11.78895 -1.53412,-1.06511 -4.2462,-1.94068 -6.89615,-2.22634 -3.15599,-0.3402 -29.10257,-0.32785 -49.19653,0.0234 -17.04717,0.29801 -16.57987,0.25879 -21.44356,1.79942 -1.50629,0.47713 -2.78087,0.82532 -2.83239,0.77377 -0.0516,-0.0515 0.17863,-0.45085 0.51159,-0.88733 0.78316,-1.02683 2.52315,-2.16908 4.34261,-2.85085 3.0389,-1.13871 4.06903,-1.2092 21.41963,-1.46563 15.64573,-0.23123 22.68365,-0.39725 41.40091,-0.97664 l 8.76857,-0.27142 1.30163,-0.64915 c 2.29278,-1.14342 4.12528,-3.15959 13.16624,-14.48594 4.80147,-6.01517 8.72994,-10.99031 8.72994,-11.05586 0,-0.2235 -4.99357,0.18385 -5.31047,0.4332 -0.17366,0.13664 -2.50614,3.17876 -5.18325,6.76028 -5.76563,7.71339 -7.48728,9.80154 -10.13938,12.29813 -2.62637,2.47238 -3.54802,3.081 -5.18837,3.42622 -3.16093,0.66523 -11.7554,0.82068 -30.97086,0.56017 -22.27707,-0.30202 -29.74403,-0.14143 -33.22412,0.71454 -2.77889,0.68352 -6.19131,1.86849 -8.3239,2.89051 -0.90011,0.43135 -1.67539,0.74539 -1.7229,0.69787 -0.20716,-0.20715 0.66207,-1.44542 1.68883,-2.40581 3.22048,-3.01239 8.01675,-4.88905 14.0187,-5.48517 2.4046,-0.23884 16.20184,-0.349 25.19573,-0.20119 2.80813,0.0462 8.40229,0.0816 12.43137,0.0788 6.58072,-0.005 7.60369,-0.0552 10.06049,-0.49739 3.25416,-0.58569 6.89261,-1.75355 9.03354,-2.89955 1.28376,-0.68718 1.63541,-1.00099 2.04142,-1.82188 1.16796,-2.36146 1.29067,-8.79099 0.26574,-13.92256 l -0.23274,-1.16544 h -1.7602 c -0.96808,0 -1.77603,0.025 -1.79538,0.0555 -0.0193,0.0305 -0.0985,2.50292 -0.17559,5.49421 -0.15367,5.9535 -0.22762,6.32338 -1.57028,7.8526 -0.97889,1.11489 -1.59507,1.39611 -3.6703,1.67502 -4.39528,0.59073 -7.76201,0.68756 -23.77393,0.68375 -9.88145,-0.003 -18.04384,0.0922 -19.64604,0.22767 -7.51482,0.63521 -13.52849,2.1363 -18.76405,4.68372 -2.53864,1.2352 -2.82153,1.44059 -4.63203,3.36337 -3.40625,3.6175 -6.70462,8.45202 -8.59111,12.5923 l -0.85976,1.8869 0.0804,-1.35267 c 0.17924,-3.01676 4.62182,-10.37116 11.57562,-19.16273 1.29564,-1.63806 2.35573,-3.05589 2.35573,-3.15075 0,-0.31931 -0.98191,-0.8636 -1.55791,-0.8636 -1.01405,0 -3.629,1.76514 -4.81741,3.2518 -6.06362,7.58553 -9.85176,13.7636 -11.61747,18.94708 -0.39511,1.15988 -0.95389,2.35653 -1.2417,2.6592 l -0.5233,0.55031 -0.67149,-0.6715 -0.67153,-0.67151 0.57433,-1.9877 c 1.2825,-4.43887 2.68145,-7.18367 8.0744,-15.84205 4.11478,-6.60637 4.14046,-6.67961 2.34301,-6.67961 -0.77808,0 -1.25223,0.2035 -2.5812,1.10779 -0.89542,0.60929 -1.7865,1.23363 -1.98022,1.38743 -0.56744,0.45054 -5.01367,7.98983 -6.55607,11.11692 -0.77948,1.58029 -1.77542,4.03391 -2.21332,5.4525 -1.16057,3.76026 -1.16444,3.76447 -2.4277,2.6553 -0.80836,-0.70975 -0.82201,-0.7482 -0.69285,-1.95394 0.30128,-2.81231 1.91745,-7.85964 3.83382,-11.97332 0.53445,-1.14721 0.97173,-2.2195 0.97173,-2.38288 0,-0.16338 -0.28928,-0.62078 -0.64279,-1.01645 -0.61883,-0.69259 -0.66637,-0.7072 -1.27645,-0.39198 -1.03206,0.53327 -2.80215,2.46825 -3.55669,3.88807 -0.38676,0.7277 -1.27522,3.24607 -1.97448,5.59638 -0.69922,2.3503 -1.35112,4.27328 -1.44871,4.27328 -0.0975,0 -0.50769,-0.41467 -0.91136,-0.92149 -1.86295,-2.33878 -2.53842,-2.66436 -3.47016,-1.67258 -0.60256,0.64138 -0.61287,1.48022 -0.0387,3.14904 0.59328,1.72437 0.57021,2.20209 -0.12145,2.51724 -0.311,0.14169 -0.71055,0.25762 -0.88797,0.25762 -0.43613,0 -0.40565,0.57688 0.10978,2.07496 1.5247,4.4316 4.81242,8.34156 10.00119,11.89389 4.92894,3.37447 11.324,5.48372 17.38887,5.73524 3.00837,0.12476 4.75868,-0.22443 6.25289,-1.24749 1.14815,-0.78606 1.18928,-1.47572 0.13063,-2.18913 -1.15653,-0.77939 -2.68514,-1.14347 -5.87649,-1.39966 -9.9109,-0.79561 -17.4109,-4.39707 -22.85508,-10.97488 -0.85446,-1.03235 -0.8737,-1.08313 -0.25757,-0.67884 6.76058,4.43597 14.12669,7.67462 19.70752,8.66481 1.67431,0.29706 2.91751,0.35924 5.43874,0.27199 3.463,-0.11983 5.53035,-0.53574 7.92326,-1.59401 1.32328,-0.58521 1.4921,-0.88843 1.39511,-2.50591 l -0.0564,-0.93957 18.20309,-0.11194 c 10.01166,-0.0616 20.54643,-0.1116 23.41049,-0.11118 6.62372,10e-4 13.06535,0.42699 18.54536,1.22657 2.58661,0.3774 3.03941,0.71426 3.90426,2.90441 0.58267,1.47557 0.69693,4.3337 0.33789,8.45199 -0.2236,2.56428 0.0486,4.07424 0.83351,4.62401 0.28591,0.20027 0.9948,0.3235 1.86087,0.3235 1.66275,0 1.6621,10e-4 2.03113,-3.00825 0.54054,-4.40744 0.20698,-9.19843 -0.86453,-12.4184 -0.42969,-1.29115 -0.61363,-1.54116 -1.71333,-2.32866 -2.31801,-1.65987 -6.19045,-2.76888 -11.604,-3.32323 -1.32657,-0.13584 -6.8662,-0.23382 -12.87535,-0.22773 -5.80085,0.006 -16.19103,-0.0545 -23.08933,-0.13426 -8.03104,-0.0928 -14.77112,-0.0553 -18.73862,0.10425 -3.40796,0.13707 -6.23931,0.20618 -6.29187,0.15359 -0.22099,-0.22095 2.37436,-1.46783 3.92661,-1.88647 3.05628,-0.82429 4.45712,-0.91185 17.88502,-1.11803 7.32565,-0.11248 19.21312,-0.3217 26.41667,-0.46493 19.89942,-0.39565 21.7145,-0.38953 23.41981,0.0789 3.01296,0.82772 5.64819,2.09582 7.8806,3.79225 2.25549,1.71396 4.85613,4.63443 11.04286,12.40087 l 6.67556,8.38006 h 2.31947 c 1.95775,0 2.2998,-0.0513 2.19325,-0.32889 z"
       id="path2161-3-5" />
    <path
       inkscape:connector-curvature="0"
       d="m 335.7673,580.55908 54.0841,-85.63314 c 0,0 49.5771,0 49.5771,0 0,0 -49.5771,85.63314 -49.5771,85.63314 0,0 49.5771,83.83042 49.5771,83.83042 h -54.0841 z m 63.0981,0 49.5771,-85.63314 c 0,0 54.0841,0 54.0841,0 0,0 -49.5771,85.63314 -49.5771,85.63314 l 49.5771,83.83042 h -54.0841 z m 63.0981,0 49.5771,-85.63314 c 0,0 54.08425,0 54.08425,0 0,0 -48.67575,85.63314 -48.67575,85.63314 l 48.67575,83.83042 H 511.5406 Z m 175.77345,-85.63314 c 0,0 49.5772,0 49.5772,0 l -63.0982,169.46356 h -49.5771 z m 108.1683,85.63314 c 0,0 -49.5771,-85.63314 -49.5771,-85.63314 0,0 54.0841,0 54.0841,0 0,0 49.5771,85.63314 49.5771,85.63314 l -49.5771,83.83042 h -54.0841 c 0,0 49.5771,-83.83042 49.5771,-83.83042 z m 13.5211,83.83042 c 0,0 49.5771,-83.83042 49.5771,-83.83042 0,0 -49.5771,-85.63314 -49.5771,-85.63314 h 54.0841 l 49.5771,85.63314 -49.5771,83.83042 c 0,0 -54.0841,0 -54.0841,0 z"
       id="path1103-6-5-6"
       style="fill:#000000;stroke:#ffffff;stroke-width:3.94024181;stroke-miterlimit:4;stroke-dasharray:none;stroke-opacity:1" />
    <path
       inkscape:connector-curvature="0"
       d="m 1291.2536,580.55908 54.0841,-85.63314 c 0,0 49.5771,0 49.5771,0 0,0 -49.5771,85.63314 -49.5771,85.63314 0,0 49.5771,83.83042 49.5771,83.83042 h -54.0841 z m 63.0981,0 49.5771,-85.63314 c 0,0 54.0841,0 54.0841,0 0,0 -49.5771,85.63314 -49.5771,85.63314 l 49.5771,83.83042 h -54.0841 z m 63.0981,0 49.5771,-85.63314 c 0,0 54.0842,0 54.0842,0 0,0 -48.6757,85.63314 -48.6757,85.63314 l 48.6757,83.83042 h -54.0842 z m 175.7734,-85.63314 c 0,0 49.5772,0 49.5772,0 l -63.0982,169.46356 h -49.5771 z m 108.1683,85.63314 c 0,0 -49.5771,-85.63314 -49.5771,-85.63314 0,0 54.0841,0 54.0841,0 0,0 49.5771,85.63314 49.5771,85.63314 l -49.5771,83.83042 h -54.0841 c 0,0 49.5771,-83.83042 49.5771,-83.83042 z m 13.5211,83.83042 c 0,0 49.5771,-83.83042 49.5771,-83.83042 0,0 -49.5771,-85.63314 -49.5771,-85.63314 h 54.0841 l 49.5771,85.63314 -49.5771,83.83042 c 0,0 -54.0841,0 -54.0841,0 z"
       id="path1103-6-5-2"
       style="fill:#000000;stroke:#ffffff;stroke-width:3.94024181;stroke-miterlimit:4;stroke-dasharray:none;stroke-opacity:1" />
    <path
       inkscape:connector-curvature="0"
       d="M 159.9938,411.09552 H 209.571 L 146.4728,580.55908 H 96.8957 Z m 108.1683,85.63314 -49.5771,-85.63314 h 54.0841 l 49.5771,85.63314 -49.5771,83.83042 H 218.585 Z m 13.5211,83.83042 49.5771,-83.83042 -49.5771,-85.63314 h 54.0841 l 49.5771,85.63314 -49.5771,83.83042 z"
       id="path1103-6-5-9"
       style="fill:#000000;stroke:#ffffff;stroke-width:3.94024181;stroke-miterlimit:4;stroke-dasharray:none;stroke-opacity:1"
       sodipodi:nodetypes="ccccccccccccccccccc" />
    <path
       inkscape:connector-curvature="0"
       d="m 1768.9967,496.72866 54.0841,-85.63314 h 49.5771 l -49.5771,85.63314 49.5771,83.83042 h -54.0841 z m 63.0981,0 49.5771,-85.63314 h 54.0841 l -49.5771,85.63314 49.5771,83.83042 h -54.0841 z m 63.0981,0 49.5771,-85.63314 h 54.0843 l -48.6758,85.63314 48.6758,83.83042 H 1944.77 Z"
       id="path1103-6-5-1"
       style="fill:#000000;stroke:#ffffff;stroke-width:3.94024181;stroke-miterlimit:4;stroke-dasharray:none;stroke-opacity:1"
       sodipodi:nodetypes="ccccccccccccccccccccc" />
    <path
       inkscape:connector-curvature="0"
       style="fill:#000000;stroke:#ffffff;stroke-width:1.11567795;stroke-miterlimit:4;stroke-dasharray:none;stroke-opacity:1"
       d="m 2042.7978,476.22287 c -4.3388,-2.92662 -6.6193,-7.65829 -7.0429,-14.61293 -0.3156,-5.18262 0.2025,-9.08817 2.4317,-18.33001 1.9907,-8.25379 2.2569,-9.90562 2.3837,-14.79569 l 0.1103,-4.25123 -0.6161,-1.132 c -0.3389,-0.6226 -0.6751,-1.12551 -0.7473,-1.11759 -0.2237,0.0246 -2.9379,3.24468 -4.587,5.44185 -3.596,4.79112 -5.6369,9.51699 -6.0085,13.91334 l -0.1438,1.70106 -1.1604,0.24089 c -2.3375,0.48528 -2.3934,0.46932 -2.723,-0.77759 -0.4405,-1.66635 -0.2325,-5.82852 0.3827,-7.65861 0.8344,-2.48201 2.7071,-5.95856 5.384,-9.99477 2.9716,-4.4807 4.9089,-8.01924 5.6223,-10.26916 0.5838,-1.84151 0.654,-1.88417 3.4242,-2.0808 l 1.9226,-0.13647 0.6873,1.75058 c 1.6371,4.16918 2.2396,7.10106 2.4357,11.85107 0.2239,5.42662 -0.3485,10.27104 -2.61,22.08788 -1.96,10.24196 -1.936,10.00782 -1.3534,13.19312 1.0062,5.50111 2.3897,8.68775 4.9856,11.48309 0.6256,0.67365 0.6449,0.75717 0.4888,2.1089 -0.089,0.7741 -0.2477,1.63223 -0.3516,1.90694 -0.2975,0.78592 -1.2211,0.62055 -2.9149,-0.52187 z m -19.8999,-22.00737 -0.9707,-0.0863 0.1193,-0.88973 c 0.1831,-1.36514 1.0603,-2.49996 2.4627,-3.18611 1.0878,-0.53222 1.5934,-0.61672 4.7286,-0.79037 1.9307,-0.10695 3.8851,-0.19825 4.3429,-0.20289 l 0.8325,-0.008 v 2.10467 c 0,2.48771 0.6369,2.14284 -5.12,2.7724 -4.0482,0.4427 -4.4427,0.46039 -6.3953,0.28679 z m 20.0396,-2.84251 c -0.1836,-0.73151 0.052,-2.18596 0.4914,-3.036 0.5263,-1.01763 2.0137,-2.53926 3.8597,-3.94826 1.9024,-1.45214 3.5533,-3.1463 4.1044,-4.2121 1.1867,-2.29484 1.9906,-9.88504 1.4648,-13.83017 -0.7163,-5.37387 -3.4974,-11.35643 -7.1236,-15.32407 -0.6102,-0.6677 -1.1095,-1.31256 -1.1095,-1.43299 0,-0.12045 1.0654,-1.20528 2.3675,-2.41075 1.6692,-1.54522 2.3988,-2.09355 2.4734,-1.8588 0.2938,0.92411 3.9984,7.8351 4.8306,9.01148 1.8006,2.54527 4.1904,4.3594 6.5374,4.96262 0.5473,0.14068 1.3718,0.40055 1.8321,0.57747 1.2118,0.46572 2.8755,0.39725 5.6687,-0.23329 4.1789,-0.9433 5.5091,-0.67524 6.4668,1.30315 0.7942,1.64054 0.635,1.93004 -1.4448,2.6278 -3.6471,1.22354 -8.4527,1.27638 -13.269,0.14588 -1.4837,-0.34827 -2.026,-0.39827 -2.2198,-0.20468 -0.2912,0.29081 -0.307,2.20409 -0.044,5.34038 0.1475,1.75941 0.097,2.52563 -0.3054,4.62348 -1.2228,6.37688 -3.6122,11.04385 -7.5318,14.71107 -1.5461,1.44654 -2.1082,1.82812 -3.1241,2.12075 -0.6813,0.19625 -1.8111,0.64406 -2.5107,0.99512 l -1.2719,0.6383 z m -12.5725,-39.17053 c -0.334,-0.10058 -0.9584,-0.39983 -1.3874,-0.66499 -0.6401,-0.3956 -0.7801,-0.61513 -0.7801,-1.2233 v -0.74119 l 1.4985,-0.1467 c 3.7432,-0.36645 6.7656,-1.60254 9.7426,-3.98444 3.1759,-2.54102 5.9267,-6.20359 10.4028,-13.85112 1.4406,-2.46126 2.3494,-3.79536 2.5887,-3.80033 0.4487,-0.009 1.468,1.1582 1.6523,1.8926 0.297,1.18348 -1.4087,6.88286 -3.0367,10.14668 -3.1447,6.30423 -8.4234,10.59445 -14.9676,12.16461 -1.8208,0.43687 -4.6154,0.5387 -5.7131,0.20818 z m -110.609,-3.10694 -35.9622,-0.11285 -0.7229,-0.51565 c -0.9094,-0.64858 -2.2979,-3.4691 -2.9155,-5.92202 -1.0659,-4.23372 -1.6833,-8.86806 -2.026,-15.20624 -0.1287,-2.38082 -0.4418,-7.52541 -0.6958,-11.43241 -0.5042,-7.75618 -0.468,-12.61062 0.1484,-19.86799 0.9302,-10.95186 2.6212,-17.52047 4.8934,-19.00934 0.6251,-0.40954 7.1784,-0.80827 28.4477,-1.73091 20.0076,-0.8679 41.6235,-0.15434 53.7746,1.77514 2.7403,0.43513 3.2438,0.82033 4.5595,3.48771 1.3299,2.69613 2.0921,5.76065 2.2904,9.20904 0.2158,3.75193 0.1275,4.63965 -0.4774,4.80193 -0.7734,0.20748 -3.2481,0.15308 -3.6855,-0.081 -0.6323,-0.3384 -1.086,-1.77572 -1.4544,-4.60768 -0.7816,-6.00808 -1.8433,-7.42061 -6.3844,-8.49359 -5.0722,-1.19849 -12.786,-1.64596 -28.1355,-1.63212 -14.9172,0.0135 -26.4387,0.47251 -37.9992,1.51398 -2.8568,0.25736 -3.6732,0.41147 -4.5597,0.86065 -2.2969,1.16394 -4.0127,3.88312 -5.064,8.02539 -0.8056,3.17395 -0.9684,5.25767 -1.207,15.44605 -0.3432,14.64809 0.2143,21.74124 2.3053,29.32821 1.2636,4.5849 2.3136,6.14129 5.0408,7.47156 3.0326,1.47923 1.845,1.42653 31.9383,1.41731 26.0829,-0.008 34.6957,-0.17135 38.0807,-0.72227 3.1501,-0.51269 4.9555,-3.77962 5.992,-10.84257 0.4835,-3.2947 0.5415,-3.49376 1.1839,-4.06775 1.3028,-1.16409 3.0103,-1.024 3.7368,0.30659 0.6528,1.19566 0.5163,5.06166 -0.3198,9.05558 -1.0779,5.14935 -2.0658,8.63516 -2.6408,9.31854 -1.1222,1.33369 -4.431,2.13046 -9.4047,2.26469 -1.5261,0.0412 -18.9578,0.0241 -38.737,-0.038 z m 101.2269,-3.64374 c -1.4464,-0.35744 -2.3161,-0.82636 -3.3618,-1.81257 l -0.8521,-0.80363 0.5196,-0.42073 c 0.8044,-0.65135 2.542,-1.08761 5.6922,-1.42918 1.5872,-0.17208 3.3353,-0.45887 3.8848,-0.63728 6.038,-1.96075 9.8031,-4.37395 14.6836,-9.41138 2.3884,-2.46517 7.3046,-8.5626 7.6686,-9.51123 0.074,-0.19232 0.4733,-0.3027 1.0956,-0.3027 1.1452,0 1.1433,-0.132 0.046,3.2116 -2.477,7.54971 -7.588,13.79804 -14.8903,18.20353 -1.642,0.99063 -1.953,1.08573 -6.9692,2.13126 -5.6444,1.17646 -5.84,1.19681 -7.5173,0.78231 z m -107.2528,-4.67861 c 0.2139,-0.55741 8.3592,-11.86442 10.1712,-14.1193 3.7306,-4.64233 9.181,-10.35769 11.2424,-11.78895 1.5341,-1.06511 4.2462,-1.94068 6.8962,-2.22634 3.1559,-0.3402 29.1025,-0.32785 49.1965,0.0234 17.0472,0.29801 16.5799,0.25879 21.4435,1.79942 1.5063,0.47713 2.7809,0.82532 2.8324,0.77377 0.052,-0.0515 -0.1786,-0.45085 -0.5116,-0.88733 -0.7831,-1.02683 -2.5231,-2.16908 -4.3426,-2.85085 -3.0389,-1.13871 -4.069,-1.2092 -21.4196,-1.46563 -15.6457,-0.23123 -22.6836,-0.39725 -41.4009,-0.97664 l -8.7686,-0.27142 -1.3016,-0.64915 c -2.2928,-1.14342 -4.1253,-3.15959 -13.1662,-14.48594 -4.8015,-6.01517 -8.73,-10.99031 -8.73,-11.05586 0,-0.2235 4.9936,0.18385 5.3105,0.4332 0.1736,0.13664 2.5061,3.17876 5.1832,6.76028 5.7657,7.71339 7.4873,9.80154 10.1394,12.29813 2.6264,2.47238 3.548,3.081 5.1884,3.42622 3.1609,0.66523 11.7554,0.82068 30.9708,0.56017 22.2771,-0.30202 29.7441,-0.14143 33.2242,0.71454 2.7789,0.68352 6.1913,1.86849 8.3239,2.89051 0.9001,0.43135 1.6754,0.74539 1.7229,0.69787 0.2071,-0.20715 -0.6621,-1.44542 -1.6889,-2.40581 -3.2204,-3.01239 -8.0167,-4.88905 -14.0187,-5.48517 -2.4046,-0.23884 -16.2018,-0.349 -25.1957,-0.20119 -2.8081,0.0462 -8.4023,0.0816 -12.4314,0.0788 -6.5807,-0.005 -7.6037,-0.0552 -10.0605,-0.49739 -3.2541,-0.58569 -6.8926,-1.75355 -9.0335,-2.89955 -1.2838,-0.68718 -1.6354,-1.00099 -2.0414,-1.82188 -1.168,-2.36146 -1.2907,-8.79099 -0.2658,-13.92256 l 0.2328,-1.16544 h 1.7602 c 0.9681,0 1.776,0.025 1.7954,0.0555 0.019,0.0305 0.098,2.50292 0.1756,5.49421 0.1536,5.9535 0.2276,6.32338 1.5702,7.8526 0.9789,1.11489 1.5951,1.39611 3.6703,1.67502 4.3953,0.59073 7.762,0.68756 23.774,0.68375 9.8814,-0.003 18.0438,0.0922 19.646,0.22767 7.5148,0.63521 13.5285,2.1363 18.7641,4.68372 2.5386,1.2352 2.8215,1.44059 4.632,3.36337 3.4062,3.6175 6.7046,8.45202 8.5911,12.5923 l 0.8598,1.8869 -0.08,-1.35267 c -0.1793,-3.01676 -4.6219,-10.37116 -11.5757,-19.16273 -1.2956,-1.63806 -2.3557,-3.05589 -2.3557,-3.15075 0,-0.31931 0.9819,-0.8636 1.5579,-0.8636 1.0141,0 3.629,1.76514 4.8174,3.2518 6.0636,7.58553 9.8518,13.7636 11.6175,18.94708 0.3951,1.15988 0.9539,2.35653 1.2417,2.6592 l 0.5233,0.55031 0.6715,-0.6715 0.6715,-0.67151 -0.5743,-1.9877 c -1.2825,-4.43887 -2.6815,-7.18367 -8.0744,-15.84205 -4.1148,-6.60637 -4.1405,-6.67961 -2.343,-6.67961 0.7781,0 1.2522,0.2035 2.5812,1.10779 0.8954,0.60929 1.7865,1.23363 1.9802,1.38743 0.5674,0.45054 5.0137,7.98983 6.5561,11.11692 0.7794,1.58029 1.7754,4.03391 2.2133,5.4525 1.1606,3.76026 1.1644,3.76447 2.4277,2.6553 0.8083,-0.70975 0.822,-0.7482 0.6928,-1.95394 -0.3012,-2.81231 -1.9174,-7.85964 -3.8338,-11.97332 -0.5344,-1.14721 -0.9717,-2.2195 -0.9717,-2.38288 0,-0.16338 0.2893,-0.62078 0.6428,-1.01645 0.6188,-0.69259 0.6663,-0.7072 1.2764,-0.39198 1.0321,0.53327 2.8022,2.46825 3.5567,3.88807 0.3868,0.7277 1.2752,3.24607 1.9745,5.59638 0.6992,2.3503 1.3511,4.27328 1.4487,4.27328 0.097,0 0.5077,-0.41467 0.9114,-0.92149 1.8629,-2.33878 2.5384,-2.66436 3.4701,-1.67258 0.6026,0.64138 0.6129,1.48022 0.039,3.14904 -0.5933,1.72437 -0.5702,2.20209 0.1215,2.51724 0.311,0.14169 0.7105,0.25762 0.8879,0.25762 0.4362,0 0.4057,0.57688 -0.1097,2.07496 -1.5247,4.4316 -4.8125,8.34156 -10.0012,11.89389 -4.929,3.37447 -11.324,5.48372 -17.3889,5.73524 -3.0084,0.12476 -4.7587,-0.22443 -6.2529,-1.24749 -1.1481,-0.78606 -1.1893,-1.47572 -0.1306,-2.18913 1.1565,-0.77939 2.6851,-1.14347 5.8765,-1.39966 9.9109,-0.79561 17.4109,-4.39707 22.8551,-10.97488 0.8544,-1.03235 0.8737,-1.08313 0.2575,-0.67884 -6.7606,4.43597 -14.1267,7.67462 -19.7075,8.66481 -1.6743,0.29706 -2.9175,0.35924 -5.4387,0.27199 -3.463,-0.11983 -5.5304,-0.53574 -7.9233,-1.59401 -1.3233,-0.58521 -1.4921,-0.88843 -1.3951,-2.50591 l 0.056,-0.93957 -18.2031,-0.11194 c -10.0117,-0.0616 -20.5464,-0.1116 -23.4105,-0.11118 -6.6237,0.001 -13.0653,0.42699 -18.5453,1.22657 -2.5867,0.3774 -3.0395,0.71426 -3.9043,2.90441 -0.5827,1.47557 -0.6969,4.3337 -0.3379,8.45199 0.2236,2.56428 -0.049,4.07424 -0.8335,4.62401 -0.2859,0.20027 -0.9948,0.3235 -1.8609,0.3235 -1.6627,0 -1.6621,10e-4 -2.0311,-3.00825 -0.5405,-4.40744 -0.207,-9.19843 0.8645,-12.4184 0.4297,-1.29115 0.6137,-1.54116 1.7134,-2.32866 2.318,-1.65987 6.1904,-2.76888 11.604,-3.32323 1.3265,-0.13584 6.8662,-0.23382 12.8753,-0.22773 5.8009,0.006 16.191,-0.0545 23.0893,-0.13426 8.0311,-0.0928 14.7712,-0.0553 18.7387,0.10425 3.4079,0.13707 6.2393,0.20618 6.2918,0.15359 0.221,-0.22095 -2.3743,-1.46783 -3.9266,-1.88647 -3.0563,-0.82429 -4.4571,-0.91185 -17.885,-1.11803 -7.3257,-0.11248 -19.2131,-0.3217 -26.4167,-0.46493 -19.8994,-0.39565 -21.7145,-0.38953 -23.4198,0.0789 -3.0129,0.82772 -5.6482,2.09582 -7.8806,3.79225 -2.2555,1.71396 -4.8561,4.63443 -11.0428,12.40087 l -6.6756,8.38006 h -2.3195 c -1.9577,0 -2.2998,-0.0513 -2.1932,-0.32889 z"
       id="path2161-3-5-2" />
  </g>
</svg>
