<?xml version="1.0" encoding="UTF-8" standalone="no"?>
<!-- Created with Inkscape (http://www.inkscape.org/) -->

<svg
   xmlns:dc="http://purl.org/dc/elements/1.1/"
   xmlns:cc="http://creativecommons.org/ns#"
   xmlns:rdf="http://www.w3.org/1999/02/22-rdf-syntax-ns#"
   xmlns:svg="http://www.w3.org/2000/svg"
   xmlns="http://www.w3.org/2000/svg"
   xmlns:sodipodi="http://sodipodi.sourceforge.net/DTD/sodipodi-0.dtd"
   xmlns:inkscape="http://www.inkscape.org/namespaces/inkscape"
   width="64mm"
   height="64mm"
   viewBox="0 0 64 64"
   version="1.1"
   id="svg1314"
   inkscape:version="0.92.1 r15371"
   sodipodi:docname="chunks.svg">
  <defs
     id="defs1308" />
  <sodipodi:namedview
     id="base"
     pagecolor="#ffffff"
     bordercolor="#666666"
     borderopacity="1.0"
     inkscape:pageopacity="0.0"
     inkscape:pageshadow="2"
     inkscape:zoom="2.5025094"
     inkscape:cx="114.95549"
     inkscape:cy="124.15136"
     inkscape:document-units="mm"
     inkscape:current-layer="layer1"
     showgrid="false"
     inkscape:window-width="1366"
     inkscape:window-height="709"
     inkscape:window-x="1024"
     inkscape:window-y="0"
     inkscape:window-maximized="1" />
  <metadata
     id="metadata1311">
    <rdf:RDF>
      <cc:Work
         rdf:about="">
        <dc:format>image/svg+xml</dc:format>
        <dc:type
           rdf:resource="http://purl.org/dc/dcmitype/StillImage" />
        <dc:title></dc:title>
      </cc:Work>
    </rdf:RDF>
  </metadata>
  <g
     inkscape:label="Ebene 1"
     inkscape:groupmode="layer"
     id="layer1"
     transform="translate(0,-233)">
    <flowRoot
       xml:space="preserve"
       id="flowRoot1316"
       style="fill:black;stroke:none;stroke-opacity:1;stroke-width:1px;stroke-linejoin:miter;stroke-linecap:butt;fill-opacity:1;font-family:'20 db';font-style:normal;font-weight:normal;font-size:40px;line-height:125%;letter-spacing:0px;word-spacing:0px;-inkscape-font-specification:'20 db';font-stretch:normal;font-variant:normal"><flowRegion
         id="flowRegion1318"><rect
           id="rect1320"
           width="120.25639"
           height="98.683678"
           x="34.424538"
           y="96.84771" /></flowRegion><flowPara
         id="flowPara1322"></flowPara></flowRoot>    <text
       xml:space="preserve"
       style="font-style:normal;font-variant:normal;font-weight:normal;font-stretch:normal;font-size:10.58333302px;line-height:125%;font-family:'20 db';-inkscape-font-specification:'20 db';letter-spacing:0px;word-spacing:0px;fill:#00ff00;fill-opacity:1;stroke:none;stroke-width:0.26458332px;stroke-linecap:butt;stroke-linejoin:miter;stroke-opacity:1"
       x="8.255085"
       y="245.38133"
       id="text1326"><tspan
         sodipodi:role="line"
         id="tspan1324"
         x="8.255085"
         y="245.38133"
         style="font-style:normal;font-variant:normal;font-weight:normal;font-stretch:normal;font-family:Handy00;-inkscape-font-specification:Handy00;fill:#00ff00;stroke-width:0.26458332px">0</tspan></text>
    <text
       xml:space="preserve"
       style="font-style:normal;font-variant:normal;font-weight:normal;font-stretch:normal;font-size:10.58333302px;line-height:125%;font-family:'20 db';-inkscape-font-specification:'20 db';letter-spacing:0px;word-spacing:0px;fill:#00ff00;fill-opacity:1;stroke:none;stroke-width:0.26458332px;stroke-linecap:butt;stroke-linejoin:miter;stroke-opacity:1"
       x="189.44838"
       y="211.82086"
       id="text1330"
       transform="rotate(33.271168)"><tspan
         sodipodi:role="line"
         id="tspan1328"
         x="189.44838"
         y="211.82086"
         style="font-style:normal;font-variant:normal;font-weight:normal;font-stretch:normal;font-family:Handy00;-inkscape-font-specification:Handy00;fill:#00ff00;stroke-width:0.26458332px">1</tspan></text>
    <path
       inkscape:connector-curvature="0"
       style="fill:#000000;stroke:#ffffff;stroke-width:0.065422;stroke-miterlimit:4;stroke-dasharray:none;stroke-opacity:1"
       d="m 54.148961,247.4795 c -0.168702,-0.25637 -0.185242,-0.56393 -0.0511,-0.94985 0.09998,-0.28758 0.216237,-0.48722 0.545566,-0.937 0.294148,-0.40169 0.34585,-0.48507 0.463158,-0.74684 l 0.102471,-0.22735 -0.0077,-0.0752 c -0.0043,-0.0414 -0.01112,-0.0762 -0.01519,-0.0773 -0.01286,-0.003 -0.232262,0.10924 -0.371135,0.1909 -0.302797,0.17805 -0.519968,0.3877 -0.639378,0.61722 l -0.04582,0.089 -0.06818,-0.0132 c -0.137472,-0.0265 -0.140114,-0.0287 -0.129789,-0.10358 0.01382,-0.1001 0.119082,-0.32064 0.193732,-0.40578 0.101182,-0.11548 0.281066,-0.26131 0.517084,-0.41927 0.262002,-0.17536 0.446757,-0.3231 0.536173,-0.42874 0.07315,-0.0865 0.07799,-0.0872 0.232296,-0.0353 l 0.107123,0.036 -0.0023,0.11025 c -0.0056,0.26259 -0.03918,0.43486 -0.135852,0.69633 -0.11047,0.2987 -0.250795,0.54796 -0.640086,1.13634 -0.337383,0.50997 -0.330794,0.49784 -0.371236,0.68336 -0.06979,0.32042 -0.0669,0.5241 0.01044,0.73401 0.01866,0.0506 0.01778,0.0555 -0.02114,0.12517 -0.0221,0.04 -0.05024,0.0827 -0.06208,0.0953 -0.03381,0.0358 -0.0801,0.006 -0.145948,-0.0941 z m -0.579853,-1.64037 -0.05058,-0.0265 0.02656,-0.0455 c 0.04073,-0.0698 0.113864,-0.11134 0.205227,-0.1168 0.0709,-0.004 0.100137,0.003 0.273721,0.0641 0.106796,0.0381 0.214712,0.077 0.239606,0.0871 l 0.04518,0.0184 -0.04753,0.11389 c -0.05619,0.13463 -0.01388,0.13037 -0.339682,0.0344 -0.22909,-0.0674 -0.250821,-0.0754 -0.35255,-0.12893 z m 1.148642,0.29877 c 0.0066,-0.0437 0.05214,-0.11713 0.09514,-0.15319 0.05151,-0.0432 0.16632,-0.0919 0.298034,-0.1265 0.13573,-0.0356 0.263352,-0.09 0.317241,-0.13524 0.116061,-0.0974 0.330974,-0.48996 0.391624,-0.71533 0.08261,-0.30699 0.06723,-0.69354 -0.03939,-0.99015 -0.01794,-0.05 -0.03042,-0.0961 -0.02772,-0.10259 0.0027,-0.006 0.08491,-0.0412 0.182565,-0.077 0.125242,-0.0459 0.17709,-0.0591 0.175823,-0.0447 -0.005,0.0566 0.03943,0.5143 0.05789,0.59675 0.03996,0.17841 0.128303,0.33056 0.241692,0.41621 0.02654,0.0197 0.06515,0.0526 0.08612,0.0726 0.0551,0.0526 0.146638,0.0864 0.312043,0.11539 0.247434,0.0433 0.31337,0.0879 0.32052,0.21655 0.006,0.10673 -0.0093,0.11877 -0.13751,0.10957 -0.224977,-0.0162 -0.486221,-0.12187 -0.721511,-0.29137 -0.07243,-0.0523 -0.10067,-0.0673 -0.115506,-0.0612 -0.02233,0.009 -0.06639,0.11234 -0.123378,0.28784 -0.03143,0.0987 -0.0515,0.13899 -0.120942,0.24331 -0.210188,0.31747 -0.444899,0.51605 -0.73984,0.62597 -0.116364,0.0433 -0.155371,0.0513 -0.216946,0.0442 -0.04134,-0.005 -0.112575,-0.006 -0.158364,-0.003 l -0.08325,0.006 z m 0.204295,-2.40366 c -0.01578,-0.0131 -0.04281,-0.0433 -0.0601,-0.0673 -0.02567,-0.0359 -0.02827,-0.0509 -0.01456,-0.0838 l 0.01675,-0.0401 0.08459,0.0255 c 0.210847,0.0647 0.402328,0.0661 0.617213,0.004 0.22925,-0.0658 0.460825,-0.20186 0.875777,-0.51462 0.133567,-0.10064 0.212848,-0.15232 0.225907,-0.14718 0.02456,0.009 0.05331,0.0958 0.04668,0.13974 -0.01067,0.0707 -0.231675,0.34065 -0.393494,0.4805 -0.312553,0.27013 -0.695106,0.38307 -1.084693,0.32025 -0.108393,-0.0175 -0.261941,-0.0751 -0.313864,-0.11778 z m -5.915428,-2.66621 -1.943398,-0.81867 -0.0275,-0.0442 c -0.03455,-0.0556 -0.04601,-0.23962 -0.02402,-0.38631 0.03794,-0.25318 0.109197,-0.51791 0.233797,-0.86865 0.04731,-0.13153 0.146058,-0.41721 0.220546,-0.63437 0.147854,-0.43113 0.259522,-0.69298 0.457019,-1.07169 0.297644,-0.57167 0.53754,-0.88892 0.694128,-0.91818 0.04311,-0.008 0.406713,0.11838 1.578541,0.54882 1.102315,0.40489 2.255921,0.93175 2.869912,1.31056 0.138472,0.0854 0.157019,0.11765 0.167976,0.29171 0.01109,0.17594 -0.0169,0.35898 -0.08405,0.55007 -0.07302,0.20793 -0.09832,0.25377 -0.134287,0.24907 -0.0465,-0.006 -0.179233,-0.0651 -0.197512,-0.0879 -0.02661,-0.0326 -0.01868,-0.12064 0.02535,-0.2822 0.09343,-0.34277 0.06784,-0.4432 -0.15366,-0.60383 -0.247408,-0.17943 -0.654752,-0.37783 -1.485701,-0.72375 -0.807531,-0.3362 -1.441396,-0.57155 -2.090522,-0.77626 -0.160412,-0.0506 -0.208065,-0.0607 -0.266203,-0.0564 -0.150605,0.0112 -0.304846,0.11951 -0.455293,0.31993 -0.115244,0.15358 -0.171165,0.26265 -0.414186,0.80859 -0.349375,0.78495 -0.479394,1.18138 -0.537612,1.63917 -0.03516,0.27665 -0.01351,0.38459 0.104044,0.51817 0.130709,0.14849 0.0676,0.1189 1.696332,0.798 1.411613,0.58873 1.881444,0.77428 2.077023,0.82101 0.182063,0.0434 0.353533,-0.0926 0.569139,-0.45141 0.10062,-0.16736 0.108256,-0.17682 0.155916,-0.1934 0.09681,-0.0336 0.186011,0.0126 0.195283,0.10101 0.0083,0.0794 -0.08635,0.28558 -0.221869,0.4828 -0.174621,0.25432 -0.306816,0.42063 -0.353359,0.44463 -0.09084,0.0468 -0.287902,0.0152 -0.560083,-0.0899 -0.08337,-0.0326 -1.026679,-0.42632 -2.095482,-0.87672 z m 5.560182,2.08901 c -0.07017,-0.052 -0.106652,-0.0971 -0.140984,-0.17402 l -0.028,-0.0627 0.03766,-0.0111 c 0.05827,-0.0171 0.162124,-0.001 0.340306,0.0512 0.08981,0.0265 0.190852,0.0505 0.224631,0.0532 0.37103,0.0302 0.629276,-0.0153 1.007162,-0.17768 0.184919,-0.0795 0.588666,-0.29838 0.629786,-0.3415 0.008,-0.009 0.03242,-0.006 0.0662,0.008 0.06192,0.0258 0.06491,0.0184 -0.06977,0.17495 -0.304542,0.35261 -0.72225,0.57531 -1.216903,0.64879 -0.111248,0.0165 -0.130219,0.0147 -0.425275,-0.0421 -0.332021,-0.0638 -0.343068,-0.0671 -0.424472,-0.12741 z m -5.698323,-2.67547 c 0.02413,-0.0254 0.720318,-0.45325 0.869299,-0.53435 0.30673,-0.16697 0.730754,-0.35316 0.874634,-0.38406 0.107129,-0.023 0.273611,-0.009 0.423465,0.0353 0.178457,0.0529 1.582281,0.63956 2.661504,1.11295 0.915763,0.40115 0.891362,0.38848 1.119777,0.58166 0.0707,0.0599 0.131848,0.10748 0.135791,0.10587 0.0039,-0.002 4.78e-4,-0.0284 -0.0077,-0.0595 -0.01917,-0.0732 -0.08755,-0.17436 -0.170619,-0.25235 -0.138715,-0.13028 -0.192885,-0.15733 -1.126037,-0.56304 -0.841425,-0.3659 -1.21855,-0.5338 -2.218342,-0.98791 l -0.468379,-0.2127 -0.05578,-0.0645 c -0.09827,-0.11362 -0.151882,-0.26415 -0.385335,-1.08127 -0.123979,-0.43395 -0.224207,-0.7919 -0.222724,-0.79545 0.005,-0.0121 0.26607,0.12275 0.277594,0.14338 0.0063,0.0113 0.06383,0.22862 0.12781,0.4829 0.137803,0.54762 0.183803,0.69951 0.270943,0.8945 0.08629,0.19311 0.122414,0.24686 0.203388,0.30259 0.15603,0.10738 0.617615,0.30988 1.663313,0.72983 1.21235,0.4868 1.612685,0.66439 1.781793,0.78903 0.134934,0.0998 0.29284,0.24095 0.385161,0.34442 0.03898,0.0437 0.07379,0.0781 0.07748,0.0767 0.01583,-0.007 -0.0031,-0.0932 -0.03703,-0.16833 -0.106248,-0.23575 -0.323405,-0.44563 -0.634742,-0.61344 -0.12473,-0.0672 -0.86887,-0.38483 -1.358925,-0.57993 -0.153112,-0.0607 -0.456615,-0.18515 -0.674649,-0.27614 -0.356022,-0.14884 -0.410317,-0.1745 -0.533172,-0.25416 -0.162888,-0.10515 -0.333398,-0.25056 -0.42337,-0.36093 -0.05397,-0.0662 -0.06589,-0.0911 -0.06932,-0.1447 -0.0099,-0.15417 0.128682,-0.50488 0.300041,-0.75943 l 0.03886,-0.0578 0.09525,0.0397 c 0.05242,0.0219 0.09535,0.042 0.096,0.0433 1.52e-4,0.002 -0.05099,0.13776 -0.114579,0.30128 -0.126155,0.32565 -0.130448,0.34736 -0.09236,0.46042 0.02778,0.0825 0.05474,0.11159 0.160794,0.17352 0.224492,0.13129 0.404525,0.21249 1.271087,0.57394 0.534775,0.22305 0.974518,0.41213 1.058023,0.45597 0.392337,0.20405 0.683842,0.42115 0.909634,0.67725 0.109491,0.12415 0.12014,0.1417 0.174705,0.28662 0.10262,0.27269 0.171922,0.6088 0.18051,0.87546 l 0.0039,0.12153 0.02593,-0.0751 c 0.05844,-0.1673 -0.01588,-0.66562 -0.193627,-1.29843 -0.03316,-0.11786 -0.05847,-0.21857 -0.05632,-0.22371 0.0072,-0.0173 0.07264,-0.0245 0.103837,-0.0115 0.05491,0.0229 0.156516,0.17748 0.187247,0.28477 0.15682,0.54744 0.222284,0.96731 0.200766,1.2877 -0.0048,0.0717 -0.0016,0.14905 0.0071,0.17194 l 0.01589,0.0416 0.05153,-0.0212 0.05154,-0.0212 0.01379,-0.12054 c 0.03085,-0.26917 0.01713,-0.44931 -0.07916,-1.03965 -0.07347,-0.45043 -0.07321,-0.45498 0.02406,-0.41439 0.04208,0.0176 0.06315,0.0393 0.114648,0.11828 0.0347,0.0532 0.06883,0.10707 0.07581,0.11985 0.02056,0.0372 0.09087,0.5456 0.103709,0.74966 0.0065,0.10315 0.005,0.25839 -0.0034,0.34505 -0.02217,0.22968 -0.02199,0.23001 0.0714,0.19851 0.05977,-0.0201 0.06139,-0.022 0.0816,-0.0901 0.04718,-0.15901 0.07375,-0.46862 0.06295,-0.73452 -0.003,-0.0742 -0.0025,-0.14206 0.0012,-0.1509 0.0039,-0.009 0.02971,-0.027 0.05775,-0.0405 0.04914,-0.0235 0.05207,-0.0232 0.07789,0.008 0.04378,0.0522 0.0959,0.19686 0.104659,0.29072 0.0045,0.0482 -0.0043,0.20448 -0.01955,0.34745 -0.01525,0.14298 -0.02342,0.26175 -0.01816,0.26395 0.0055,0.002 0.03686,-0.0109 0.07008,-0.0293 0.153642,-0.0845 0.197548,-0.0868 0.225575,-0.0122 0.0181,0.0483 -3.01e-4,0.0939 -0.06927,0.17118 -0.07106,0.0799 -0.08056,0.1063 -0.05039,0.13892 0.01371,0.0144 0.03267,0.03 0.04227,0.034 0.02362,0.01 0.0089,0.0404 -0.0524,0.10997 -0.182593,0.20539 -0.448814,0.34272 -0.809841,0.41777 -0.342933,0.0713 -0.736639,0.041 -1.070527,-0.0824 -0.165487,-0.0615 -0.252467,-0.11956 -0.31018,-0.20877 -0.04435,-0.0685 -0.03101,-0.10667 0.04206,-0.12155 0.08017,-0.0161 0.171108,-0.001 0.349627,0.057 0.554273,0.18083 1.041494,0.15527 1.484663,-0.0777 0.06954,-0.0365 0.07171,-0.0389 0.02926,-0.0309 -0.466032,0.0874 -0.937794,0.0963 -1.262159,0.0238 -0.09733,-0.0218 -0.166009,-0.0464 -0.300479,-0.10807 -0.184708,-0.0847 -0.287178,-0.15388 -0.392755,-0.26523 -0.0584,-0.0615 -0.06068,-0.0818 -0.0189,-0.16711 l 0.02399,-0.0497 -0.982367,-0.41757 c -0.540624,-0.22888 -1.109176,-0.4705 -1.26416,-0.53518 -0.358468,-0.14954 -0.716663,-0.27201 -1.031277,-0.35249 -0.14849,-0.038 -0.180618,-0.03 -0.276869,0.069 -0.06488,0.0667 -0.135623,0.21877 -0.209161,0.44976 -0.04583,0.14382 -0.09479,0.21932 -0.149562,0.2314 -0.02001,0.004 -0.06112,-0.005 -0.108019,-0.0245 -0.08998,-0.0376 -0.09001,-0.0375 -0.04198,-0.20865 0.07029,-0.25072 0.19658,-0.50244 0.327256,-0.65249 0.05241,-0.0602 0.06804,-0.0696 0.145302,-0.0873 0.162919,-0.0374 0.397533,-0.01 0.703014,0.0822 0.07488,0.0226 0.376836,0.14243 0.701867,0.27852 0.313783,0.13133 0.87734,0.3629 1.25256,0.51408 0.436525,0.17677 0.800494,0.33084 1.01173,0.42875 0.181342,0.0844 0.332984,0.15208 0.33702,0.1504 0.01691,-0.007 -0.09533,-0.13308 -0.169881,-0.19076 -0.146791,-0.1136 -0.220592,-0.15004 -0.942586,-0.46447 -0.393725,-0.17191 -1.032435,-0.45137 -1.419022,-0.62181 -1.067923,-0.47084 -1.166258,-0.51155 -1.269289,-0.52432 -0.181721,-0.0233 -0.352984,-0.0142 -0.512106,0.0272 -0.160759,0.0418 -0.367451,0.14112 -0.877659,0.42168 l -0.550502,0.30272 -0.125517,-0.0524 c -0.105943,-0.0442 -0.1233,-0.0547 -0.111255,-0.0673 z"
       id="path2161" />
    <path
       inkscape:connector-curvature="0"
       d="m 11.945805,290.41572 c -0.241412,0.0591 -0.47867,-0.0272 -0.590966,-0.21493 -0.124036,-0.20739 -0.12424,-0.40552 -6.75e-4,-0.65186 0.05889,-0.11745 0.09696,-0.16424 0.208849,-0.25706 0.07524,-0.0624 0.131702,-0.11965 0.125381,-0.12727 -0.0064,-0.008 -0.04933,0.001 -0.09561,0.0191 -0.04629,0.0181 -0.09127,0.0234 -0.100035,0.0115 -0.0087,-0.0118 -0.02923,-0.26594 -0.04561,-0.56483 l -0.02977,-0.54345 0.434395,-0.36816 c 0.23911,-0.20226 0.436951,-0.36508 0.440782,-0.36047 0.0038,0.005 0.01571,0.14422 0.02709,0.31106 0.03843,0.56327 0.07874,1.02608 0.09183,1.05432 0.008,0.0174 0.02064,0.0155 0.03286,-0.005 0.03878,-0.0647 0.173294,-0.0756 0.274765,-0.0224 0.176407,0.0925 0.263605,0.31275 0.209479,0.52937 -0.04793,0.1918 -0.122424,0.32439 -0.250354,0.44551 -0.152387,0.14421 -0.223035,0.14877 -0.329105,0.0209 -0.04367,-0.0526 -0.08662,-0.0835 -0.114623,-0.0822 -0.06465,0.003 -0.07262,0.0485 -0.01963,0.11243 0.07761,0.0936 0.06626,0.24297 -0.03359,0.44193 -0.08404,0.16756 -0.140995,0.22832 -0.23542,0.25143 z m 3.320507,-2.79436 c -0.05607,0.0169 -0.139106,0.0274 -0.184598,0.0233 l -0.08268,-0.007 -0.0047,-0.10755 c -0.0045,-0.10179 -0.02545,-0.16011 -0.05015,-0.13962 -0.0062,0.005 -0.02342,0.0658 -0.03849,0.13484 -0.06255,0.2877 -0.255638,0.55657 -0.470974,0.65583 -0.186851,0.0861 -0.363222,0.10685 -0.484261,0.0569 -0.207088,-0.0855 -0.279522,-0.25944 -0.243245,-0.58416 0.02113,-0.18909 0.02022,-0.19373 -0.02701,-0.13931 -0.02667,0.0312 -0.06216,0.0748 -0.07839,0.0975 -0.02546,0.0354 -0.110158,0.0163 -0.607865,-0.13753 -0.318079,-0.0983 -0.586809,-0.18318 -0.597189,-0.18865 -0.01056,-0.006 0.1977,-0.18961 0.471709,-0.41692 l 0.490577,-0.40697 0.359616,0.0732 c 0.197783,0.0402 0.443457,0.0921 0.545941,0.11524 0.102511,0.0232 0.196522,0.0336 0.208978,0.0233 0.05844,-0.0485 0.362429,-0.11247 0.518693,-0.10925 0.23821,0.005 0.375482,0.0701 0.524575,0.24893 0.125451,0.15043 0.144708,0.21014 0.114539,0.35429 -0.05178,0.2474 -0.170756,0.39537 -0.36504,0.454 z m -5.3255144,4.28583 c -0.343575,0.11875 -0.7534026,0.0744 -1.0277197,-0.11114 -0.1367673,-0.0925 -0.1676897,-0.13679 -0.2071641,-0.29663 -0.048818,-0.19768 -0.040183,-0.3342 0.034918,-0.55203 0.060868,-0.17666 0.060992,-0.24196 3.523e-4,-0.23105 -0.014051,0.003 -0.043342,0.0476 -0.064496,0.10093 l -0.038836,0.0964 -0.1163608,-0.0159 c -0.1402017,-0.0191 -0.237608,-0.077 -0.3423945,-0.20327 -0.2206123,-0.26594 -0.2050236,-0.59229 0.046784,-0.9794 0.1453822,-0.22351 0.2359296,-0.3124 0.4028426,-0.39565 0.2239365,-0.11158 0.3955302,-0.11921 0.6087693,-0.027 0.1060038,0.0459 0.1377999,0.0732 0.2354583,0.20255 l 0.1128908,0.14955 0.2395696,-0.21044 c 0.7959145,-0.69846 1.0878565,-0.93974 1.1022285,-0.91048 0.016,0.0326 0.0903,1.19176 0.08357,1.30306 -0.0043,0.0706 -0.0097,0.0761 -0.398963,0.40152 l -0.394615,0.32996 -0.149561,-0.0115 c -0.1768904,-0.0136 -0.214342,0.0365 -0.05626,0.0751 0.127071,0.0311 0.222948,0.0935 0.316449,0.20591 0.05765,0.0695 0.07615,0.11947 0.09028,0.24559 0.0229,0.20435 0.01042,0.311 -0.05486,0.46891 -0.06909,0.16724 -0.214999,0.29309 -0.4228561,0.36496 z M 16.864815,285.911 c -0.204762,0.12153 -0.457618,0.15611 -0.64449,0.0881 -0.08339,-0.0303 -0.125274,-0.0662 -0.252369,-0.21587 -0.08384,-0.0987 -0.162602,-0.1764 -0.175056,-0.17261 -0.02182,0.006 -0.0061,0.13548 0.02604,0.2161 0.01371,0.0344 -0.01495,0.0633 -0.276772,0.28054 l -0.292033,0.24226 -0.693827,-0.1601 -0.693817,-0.1601 0.449894,-0.39102 c 0.247143,-0.21541 0.540123,-0.46769 0.650411,-0.56139 0.192121,-0.16327 0.199644,-0.17211 0.176518,-0.21594 -0.126117,-0.23941 -0.154314,-0.30967 -0.17654,-0.44002 -0.03312,-0.19418 -0.0014,-0.4155 0.08288,-0.57924 0.05853,-0.11352 0.09266,-0.15157 0.265002,-0.29507 0.183104,-0.15238 0.210665,-0.16826 0.367816,-0.21418 0.21881,-0.0638 0.398371,-0.0631 0.558151,0.002 0.116217,0.0474 0.138027,0.0662 0.243788,0.21033 0.142985,0.19486 0.193708,0.35128 0.212118,0.65415 0.0074,0.12285 0.01904,0.23 0.02572,0.23804 0.02311,0.0279 0.04284,-0.0114 0.05408,-0.10762 0.0062,-0.0532 0.02143,-0.10522 0.03385,-0.11552 0.033,-0.0274 0.268326,0.001 0.354975,0.0429 0.04385,0.0212 0.123939,0.0955 0.194407,0.18047 0.10478,0.12631 0.123628,0.16359 0.149476,0.29641 0.03389,0.17392 0.0053,0.37613 -0.07706,0.54584 -0.117187,0.24135 -0.354935,0.50798 -0.563134,0.63155 z m -5.095321,1.63796 c -0.07506,0.0197 -0.107735,0.0396 -0.132742,0.081 -0.07348,0.12163 -0.43079,0.36906 -0.581747,0.40256 -0.03966,0.009 -0.06567,0.0392 -0.116009,0.13561 -0.04566,0.0872 -0.08364,0.13384 -0.127969,0.1567 -0.08631,0.0446 -0.204792,0.0756 -0.287689,0.0753 -0.06895,-2.3e-4 -0.06921,-2e-5 -0.09393,0.0844 -0.02244,0.077 -0.03303,0.0883 -0.11527,0.12356 -0.133877,0.0574 -0.305743,0.088 -0.4204621,0.075 -0.078633,-0.009 -0.1311128,-0.0368 -0.2343388,-0.12441 -0.1192158,-0.10117 -0.1408748,-0.11086 -0.2087457,-0.0935 -0.5396187,0.13822 -1.8187141,0.11056 -2.4733134,-0.0535 -0.4856061,-0.12169 -1.0129762,-0.35862 -1.6113075,-0.72389 -0.1112759,-0.0679 -0.2301575,-0.13975 -0.2641851,-0.1596 -0.1852178,-0.10804 -0.6818053,-0.55306 -1.0298596,-0.92292 -0.2032436,-0.21598 -0.368646,-0.39967 -0.3675682,-0.40819 0.00102,-0.009 0.2458849,-0.22295 0.5440075,-0.4765 l 0.5418707,-0.46121 0.1498893,0.20674 c 0.1652834,0.22796 0.3879021,0.4501 0.6754458,0.67397 0.1904534,0.14828 0.8322872,0.53694 0.9148862,0.55402 0.040769,0.008 0.028154,-0.0247 -0.081329,-0.21316 -0.1637563,-0.28194 -0.2482835,-0.50647 -0.3210047,-0.85276 -0.1192915,-0.56807 -0.069961,-1.09906 0.1570458,-1.69037 0.2807933,-0.73143 0.9176722,-1.4615 1.567562,-1.79693 0.5961182,-0.30767 1.1725984,-0.41749 1.9823092,-0.37764 0.6323857,0.0311 1.1072017,0.16948 1.6012857,0.46663 0.133786,0.0805 0.249428,0.13712 0.256992,0.12592 0.0074,-0.0114 -0.01465,-0.0745 -0.04938,-0.14074 -0.03471,-0.0662 -0.08746,-0.17774 -0.117176,-0.24786 -0.174555,-0.4118 -0.612342,-0.98814 -0.942987,-1.24142 -0.104169,-0.0798 -0.188317,-0.15298 -0.186971,-0.16264 0.0011,-0.01 0.483449,-0.42288 1.071313,-0.91835 l 1.068853,-0.90086 0.134431,0.16205 c 0.665468,0.80258 1.185503,2.03746 1.310966,3.11398 0.09815,0.8422 0.07367,1.5679 -0.07464,2.21243 -0.109251,0.47475 -0.212082,0.72754 -0.569123,1.39897 -0.133299,0.25067 -0.142802,0.27905 -0.113417,0.33882 0.05889,0.11981 0.06767,0.22196 0.02485,0.28882 -0.06767,0.10564 -0.233744,0.23055 -0.34556,0.25977 l -0.100701,0.0264 -0.01785,0.0829 c -0.03011,0.13983 -0.225281,0.31292 -0.407538,0.36147 -0.07657,0.0204 -0.08439,0.0269 -0.09451,0.0781 -0.02853,0.14424 -0.339962,0.43534 -0.514615,0.48109 z m 0.313876,-0.50627 c 0.01595,-0.0743 0.007,-0.0996 -0.07515,-0.2121 -0.127586,-0.17469 -0.32915,-0.2954 -0.454387,-0.27212 -0.108028,0.0201 -0.206394,0.0998 -0.259975,0.21047 l -0.04101,0.085 0.208362,0.27035 0.208356,0.27035 0.07945,-0.0386 c 0.04367,-0.0213 0.132691,-0.0815 0.197807,-0.13383 0.09885,-0.0794 0.121044,-0.10951 0.136526,-0.17952 z m 0.477788,-0.38727 c 0.03099,-0.0483 0.03354,-0.0824 0.0098,-0.12831 -0.04536,-0.0878 -0.259174,-0.34072 -0.29679,-0.35119 -0.082,-0.0228 -0.328204,0.13892 -0.331733,0.21777 -9.78e-4,0.0228 0.06268,0.12263 0.144613,0.22679 0.126042,0.16024 0.155438,0.18698 0.210545,0.19248 0.093,0.009 0.196337,-0.0526 0.263562,-0.15757 z m -1.757442,1.41583 c 0.04057,-0.1272 -0.1393,-0.41905 -0.266041,-0.43168 -0.101381,-0.0101 -0.229654,0.0602 -0.283245,0.1552 -0.05468,0.0969 -0.05326,0.11018 0.02615,0.25004 0.09759,0.17188 0.187207,0.22254 0.320652,0.18144 0.129168,-0.0399 0.177522,-0.0768 0.20249,-0.15499 z m 0.634442,-0.6248 c -0.02867,-0.0763 -0.07623,-0.13777 -0.219373,-0.28366 -0.179654,-0.18309 -0.183901,-0.18583 -0.247794,-0.16007 -0.05145,0.0207 -0.07817,0.0519 -0.128034,0.14922 -0.101593,0.19823 -0.104426,0.27453 -0.0162,0.43502 0.04219,0.0767 0.105107,0.16778 0.13985,0.20238 0.05992,0.0597 0.06834,0.0604 0.16548,0.0134 0.05628,-0.0272 0.156393,-0.0966 0.222513,-0.15419 l 0.120103,-0.10483 z m 1.645411,-1.27612 c 0.04287,-0.11664 -0.24864,-0.45488 -0.372792,-0.43254 -0.01354,0.002 -0.06502,0.0669 -0.115218,0.14301 -0.105696,0.16109 -0.104572,0.21971 0.0067,0.34893 0.102651,0.1192 0.160765,0.1519 0.234882,0.13226 0.072,-0.0191 0.227339,-0.14 0.246513,-0.19151 z m -2.833616,2.17837 c -0.03931,-0.10993 -0.19293,-0.30017 -0.244422,-0.30263 -0.021871,-0.001 -0.1060948,0.0468 -0.1871955,0.10644 -0.1366345,0.10036 -0.1467101,0.11261 -0.1381774,0.16478 0.00936,0.0571 0.095261,0.14456 0.2137568,0.2177 0.062509,0.0386 0.1407541,0.0352 0.2428781,-0.0106 0.125153,-0.0561 0.144869,-0.0868 0.113092,-0.17567 z m 0.533322,-1.94289 c -0.02022,-0.0353 -0.0644,-0.0937 -0.09826,-0.12973 -0.05866,-0.0626 -0.05896,-0.0676 -0.0055,-0.11199 0.05095,-0.0423 0.06322,-0.0408 0.133777,0.0145 0.146521,0.11498 0.12998,0.0345 -0.109017,-0.53043 l -0.08212,-0.19409 -0.245712,-0.2332 c -0.135136,-0.12825 -0.3795725,-0.34503 -0.5431726,-0.48173 -0.1636016,-0.13669 -0.3426231,-0.28876 -0.3978182,-0.33792 -0.1088286,-0.0969 -0.1702997,-0.10139 -0.1249315,-0.009 0.015576,0.0318 0.1516578,0.22389 0.3023352,0.4269 0.2965127,0.39953 0.3200426,0.43961 0.2691558,0.45848 -0.06155,0.0229 -0.165243,-0.059 -0.4068651,-0.32114 -0.1317334,-0.14289 -0.2504534,-0.26037 -0.263837,-0.26101 -0.046196,-0.002 -0.017025,0.0791 0.063355,0.17656 0.044309,0.0538 0.1693897,0.26477 0.27781,0.4688 0.253124,0.47633 0.3421649,0.60765 0.5043558,0.74384 0.234703,0.19708 0.693315,0.44323 0.745351,0.40006 0.0098,-0.008 0.0012,-0.0436 -0.019,-0.079 z m -2.2781078,1.7633 c -0.01162,-0.014 -0.073565,-0.0459 -0.1377356,-0.071 -0.064127,-0.025 -0.148482,-0.0727 -0.1874021,-0.10579 -0.038888,-0.0331 -0.077146,-0.0549 -0.084965,-0.0484 -0.029577,0.0245 -0.28288,-0.25983 -0.4300777,-0.48282 -0.1425235,-0.21591 -0.1609829,-0.23593 -0.3335176,-0.36173 -0.1740967,-0.12695 -0.3870422,-0.23126 -0.4522163,-0.22152 -0.068233,0.0102 -0.030059,0.0594 0.087851,0.1131 0.1962613,0.0895 0.3116527,0.19784 0.6571232,0.61695 0.3061052,0.37134 0.3286658,0.39415 0.4631936,0.46772 0.2425821,0.13267 0.49762,0.18975 0.4177851,0.0935 z M 12.9193,284.49817 c 0.06154,-0.23641 -0.120392,-0.57259 -0.533974,-0.98672 -0.126733,-0.12689 -0.247766,-0.23318 -0.268981,-0.2362 -0.06832,-0.01 -0.283211,-0.32589 -0.32479,-0.47777 -0.02786,-0.10175 -0.04583,-0.13419 -0.07521,-0.13561 -0.05375,-0.003 0.0034,0.23423 0.09546,0.39577 0.07668,0.13447 0.136118,0.19547 0.484899,0.49757 0.40344,0.34947 0.565116,0.63064 0.522833,0.90931 -0.01302,0.0856 -0.01444,0.15621 -0.0032,0.15675 0.03905,0.002 0.08461,-0.0526 0.102972,-0.1231 z m -3.4248012,1.56374 c 0.021797,-0.0462 0.039099,-0.11819 0.038364,-0.1602 -0.00274,-0.16065 -0.4266515,-0.91386 -0.6354164,-1.12902 -0.1106842,-0.11408 -0.2545107,-0.18213 -0.4941813,-0.23382 -0.1884707,-0.0406 -0.2128252,-0.0319 -0.3701917,0.13283 -0.1382831,0.14473 -0.1575241,0.17264 -0.4886813,0.70719 -0.3510977,0.5668 -0.3704151,0.62459 -0.2792443,0.83532 0.052027,0.12022 0.3829995,0.47718 0.4748614,0.51216 0.1651601,0.0629 0.4221581,0.007 0.7474731,-0.16307 0.1153328,-0.0602 0.2686512,-0.11814 0.3758857,-0.14211 0.3626156,-0.0809 0.5498488,-0.18752 0.6311223,-0.35929 z m 1.5884202,-1.48651 c 0.02843,-0.0502 0.0983,-0.19926 0.155293,-0.33122 0.05697,-0.13197 0.149432,-0.30564 0.205469,-0.38594 0.113812,-0.16302 0.185899,-0.37408 0.172146,-0.50376 -0.005,-0.0472 -0.04275,-0.15476 -0.08387,-0.23904 -0.147038,-0.30139 -0.383989,-0.45238 -0.71919,-0.45839 -0.29417,-0.005 -0.422437,0.0335 -0.667954,0.2019 -0.2990075,0.20505 -0.4453972,0.3565 -0.5460351,0.5655 -0.099803,0.20714 -0.1192802,0.33435 -0.080981,0.5298 0.025424,0.12975 0.044538,0.16708 0.151022,0.29506 0.1149271,0.13815 0.1420987,0.15704 0.4748788,0.33077 0.658634,0.34381 0.632577,0.33747 0.782269,0.19014 0.0578,-0.0571 0.128481,-0.14465 0.156908,-0.19487 z"
       style="fill:#000000;stroke:#ffffff;stroke-width:0.07433869;stroke-miterlimit:4;stroke-dasharray:none;stroke-opacity:1"
       id="path1456"
       sodipodi:nodetypes="csccssccccsccccscsssccccccsccccccccscscccccccsccccccscccscccscccccsccsccccscccccccccccscscscsccscccccccccscsscsssccsccssssscccscsccsscccccccccccscccccccccsccccccccccccsccsccccccccscccccccccscscscssscscsccscsssscssscsssscscscsssccccsccsccssccscccsssscscc" />
    <path
       inkscape:connector-curvature="0"
       d="m 48.83754,284.65972 1.150873,-1.82221 c 0,0 1.054966,0 1.054966,0 0,0 -1.054966,1.82221 -1.054966,1.82221 0,0 1.054966,1.78386 1.054966,1.78386 h -1.150872 z m 1.342685,0 1.054966,-1.82221 c 0,0 1.150868,0 1.150868,0 0,0 -1.054962,1.82221 -1.054962,1.82221 l 1.054962,1.78386 h -1.150868 z m 1.34268,0 1.054966,-1.82221 c 0,0 1.150873,0 1.150873,0 0,0 -1.035784,1.82221 -1.035784,1.82221 l 1.035784,1.78386 h -1.150873 z m 3.740336,-1.82221 c 0,0 1.054966,0 1.054966,0 l -1.342684,3.60607 h -1.054967 z m 2.301745,1.82221 c 0,0 -1.054967,-1.82221 -1.054967,-1.82221 0,0 1.150873,0 1.150873,0 0,0 1.054966,1.82221 1.054966,1.82221 l -1.054966,1.78386 h -1.150873 c 0,0 1.054967,-1.78386 1.054967,-1.78386 z m 0.287718,1.78386 c 0,0 1.054967,-1.78386 1.054967,-1.78386 0,0 -1.054967,-1.82221 -1.054967,-1.82221 h 1.150873 l 1.054966,1.82221 -1.054966,1.78386 c 0,0 -1.150873,0 -1.150873,0 z"
       id="path1103"
       style="fill:#000000;stroke:#ffffff;stroke-width:0.08384559;stroke-miterlimit:4;stroke-dasharray:none;stroke-opacity:1" />
    <text
       xml:space="preserve"
       style="font-style:normal;font-variant:normal;font-weight:normal;font-stretch:normal;font-size:10.58333302px;line-height:125%;font-family:'20 db';-inkscape-font-specification:'20 db';letter-spacing:0px;word-spacing:0px;fill:#00ff00;fill-opacity:1;stroke:none;stroke-width:0.26458332px;stroke-linecap:butt;stroke-linejoin:miter;stroke-opacity:1"
       x="148.83456"
       y="194.51004"
       id="text1330-5"
       transform="rotate(33.271169)"><tspan
         sodipodi:role="line"
         id="tspan1328-2"
         x="148.83456"
         y="194.51004"
         style="font-style:normal;font-variant:normal;font-weight:normal;font-stretch:normal;font-family:Handy00;-inkscape-font-specification:Handy00;fill:#00ff00;stroke-width:0.26458332px">1</tspan></text>
    <text
       xml:space="preserve"
       style="font-style:normal;font-variant:normal;font-weight:normal;font-stretch:normal;font-size:10.58333302px;line-height:125%;font-family:'20 db';-inkscape-font-specification:'20 db';letter-spacing:0px;word-spacing:0px;fill:#00ff00;fill-opacity:1;stroke:none;stroke-width:0.26458332px;stroke-linecap:butt;stroke-linejoin:miter;stroke-opacity:1"
       x="-132.09868"
       y="-211.47639"
       id="text1330-1"
       transform="matrix(0.83608352,-0.54860217,-0.54860217,-0.83608352,0,0)"><tspan
         sodipodi:role="line"
         id="tspan1328-3"
         x="-132.09868"
         y="-211.47639"
         style="font-style:normal;font-variant:normal;font-weight:normal;font-stretch:normal;font-family:Handy00;-inkscape-font-specification:Handy00;fill:#00ff00;stroke-width:0.26458332px">1</tspan></text>
    <text
       xml:space="preserve"
       style="font-style:normal;font-variant:normal;font-weight:normal;font-stretch:normal;font-size:10.58333302px;line-height:125%;font-family:'20 db';-inkscape-font-specification:'20 db';letter-spacing:0px;word-spacing:0px;fill:#00ff00;fill-opacity:1;stroke:none;stroke-width:0.26458332px;stroke-linecap:butt;stroke-linejoin:miter;stroke-opacity:1"
       x="249.52583"
       y="-21.406311"
       id="text1326-0"
       transform="rotate(90)"><tspan
         sodipodi:role="line"
         id="tspan1324-9"
         x="249.52583"
         y="-21.406311"
         style="font-style:normal;font-variant:normal;font-weight:normal;font-stretch:normal;font-family:Handy00;-inkscape-font-specification:Handy00;fill:#00ff00;stroke-width:0.26458332px">0</tspan></text>
    <text
       xml:space="preserve"
       style="font-style:normal;font-variant:normal;font-weight:normal;font-stretch:normal;font-size:10.58333302px;line-height:125%;font-family:'20 db';-inkscape-font-specification:'20 db';letter-spacing:0px;word-spacing:0px;fill:#00ff00;fill-opacity:1;stroke:none;stroke-width:0.26458332px;stroke-linecap:butt;stroke-linejoin:miter;stroke-opacity:1"
       x="18.499609"
       y="283.73468"
       id="text1326-9"><tspan
         sodipodi:role="line"
         id="tspan1324-1"
         x="18.499609"
         y="283.73468"
         style="font-style:normal;font-variant:normal;font-weight:normal;font-stretch:normal;font-family:Handy00;-inkscape-font-specification:Handy00;fill:#00ff00;stroke-width:0.26458332px">0</tspan></text>
    <text
       xml:space="preserve"
       style="font-style:normal;font-variant:normal;font-weight:normal;font-stretch:normal;font-size:10.58333302px;line-height:125%;font-family:'20 db';-inkscape-font-specification:'20 db';letter-spacing:0px;word-spacing:0px;fill:#00ff00;fill-opacity:1;stroke:none;stroke-width:0.26458332px;stroke-linecap:butt;stroke-linejoin:miter;stroke-opacity:1"
       x="185.65408"
       y="173.02037"
       id="text1326-3"
       transform="rotate(37.294245)"><tspan
         sodipodi:role="line"
         id="tspan1324-4"
         x="185.65408"
         y="173.02037"
         style="font-style:normal;font-variant:normal;font-weight:normal;font-stretch:normal;font-family:Handy00;-inkscape-font-specification:Handy00;fill:#00ff00;stroke-width:0.26458332px">0</tspan></text>
    <text
       xml:space="preserve"
       style="font-style:normal;font-variant:normal;font-weight:normal;font-stretch:normal;font-size:10.58333302px;line-height:125%;font-family:'20 db';-inkscape-font-specification:'20 db';letter-spacing:0px;word-spacing:0px;fill:#00ff00;fill-opacity:1;stroke:none;stroke-width:0.26458332px;stroke-linecap:butt;stroke-linejoin:miter;stroke-opacity:1"
       x="90.762672"
       y="243.9953"
       id="text1330-58"
       transform="matrix(-0.83608352,0.54860217,0.54860217,0.83608352,0,0)"><tspan
         sodipodi:role="line"
         id="tspan1328-5"
         x="90.762672"
         y="243.9953"
         style="font-style:normal;font-variant:normal;font-weight:normal;font-stretch:normal;font-family:Handy00;-inkscape-font-specification:Handy00;fill:#00ff00;stroke-width:0.26458332px">1</tspan></text>
    <text
       xml:space="preserve"
       style="font-style:normal;font-variant:normal;font-weight:normal;font-stretch:normal;font-size:10.58333302px;line-height:125%;font-family:'20 db';-inkscape-font-specification:'20 db';letter-spacing:0px;word-spacing:0px;fill:#00ff00;fill-opacity:1;stroke:none;stroke-width:0.26458332px;stroke-linecap:butt;stroke-linejoin:miter;stroke-opacity:1"
       x="146.31529"
       y="238.27271"
       id="text1330-7"
       transform="matrix(-0.83608351,0.54860219,0.54860219,0.83608351,0,0)"><tspan
         sodipodi:role="line"
         id="tspan1328-33"
         x="146.31529"
         y="238.27271"
         style="font-style:normal;font-variant:normal;font-weight:normal;font-stretch:normal;font-family:Handy00;-inkscape-font-specification:Handy00;fill:#00ff00;stroke-width:0.26458332px">1</tspan></text>
  </g>
</svg>
